<svg width="86" height="86" viewBox="0 0 86 86" fill="none" xmlns="http://www.w3.org/2000/svg">
<circle cx="43" cy="43" r="42.5" fill="white" stroke="#DDDDDF"/>
<mask id="mask0_2620_39830" style="mask-type:alpha" maskUnits="userSpaceOnUse" x="0" y="0" width="86" height="86">
<circle cx="43" cy="43" r="43" fill="#EFEEFF"/>
</mask>
<g mask="url(#mask0_2620_39830)">
<path d="M42.9993 15.4799C47.333 15.4799 51.4891 17.2037 54.5535 20.2722C57.6178 23.3407 59.3393 27.5025 59.3393 31.8419C59.3393 36.1814 57.6178 40.3432 54.5535 43.4117C51.4891 46.4801 47.333 48.204 42.9993 48.204C38.6657 48.204 34.5096 46.4801 31.4452 43.4117C28.3809 40.3432 26.6593 36.1814 26.6593 31.8419C26.6593 27.5025 28.3809 23.3407 31.4452 20.2722C34.5096 17.2037 38.6657 15.4799 42.9993 15.4799ZM42.9993 56.385C61.055 56.385 75.6793 63.707 75.6793 72.7471V99.6276C50.1547 108.977 35.844 108.977 10.3193 99.6276V72.7471C10.3193 63.707 24.9436 56.385 42.9993 56.385Z" fill="#DDDDDF"/>
</g>
</svg>
