<svg xmlns="http://www.w3.org/2000/svg" width="64" height="54" viewBox="0 0 64 54" fill="none">
  <path d="M7.87695 40.875V19H56.1231V40.875C54.8422 44.6019 48.4037 54 32 54C16.5613 54 9.7271 45.088 7.87695 40.875Z" fill="#5F6268"/>
  <path d="M48.4018 26.8858V21.468C48.4018 20.844 47.7037 20.4743 47.1876 20.825C46.9746 20.9697 46.8471 21.2105 46.8471 21.468V26.8468C46.8471 27.4882 46.1347 27.977 45.7078 28.4557C45.4666 28.7261 45.2925 29.1664 45.2925 29.8592V44C45.2925 44.5523 45.7402 45 46.2925 45H49.2156C49.7678 45 50.2156 44.5523 50.2156 44V29.8592C50.2156 29.0354 49.9283 28.5685 49.5638 28.3199C49.0444 27.9656 48.4018 27.5145 48.4018 26.8858Z" fill="#FFC835"/>
  <path d="M2.98854 15.0116C10.3775 10.73 29.1164 0.0353527 32 0.00012395C34.8973 -0.035272 53.8008 10.804 61.1159 15.064C62.425 15.8263 62.4325 17.6901 61.1276 18.4595C54.0559 22.6293 36.1423 33 32.9014 33C29.6548 33 10.5287 22.5926 3.02183 18.4374C1.67299 17.6908 1.65462 15.7846 2.98854 15.0116Z" fill="#919397"/>
  <ellipse cx="32.9845" cy="16.5" rx="4.43077" ry="3.5" fill="#5F6268"/>
</svg>