<svg xmlns="http://www.w3.org/2000/svg" width="101" height="59" viewBox="0 0 101 59" fill="none">
  <path d="M3 39.9469C2.99982 36.353 4.21548 32.863 6.45235 30.0357C8.68921 27.2084 11.8179 25.2074 15.3374 24.3531C15.4829 18.6426 17.8715 13.2144 21.9939 9.22555C26.1163 5.23671 31.6466 3.00279 37.4057 3.00001C40.7445 2.99763 44.0401 3.74812 47.0435 5.19477C50.0469 6.64141 52.6794 8.74634 54.7421 11.3505C56.4207 9.21204 58.764 7.68298 61.4083 7.00055C64.0527 6.31812 66.8501 6.52048 69.3667 7.57622C71.8832 8.63197 73.978 10.4821 75.3261 12.8394C76.6742 15.1968 77.2001 17.9295 76.8223 20.6137C79.4123 20.149 82.0736 20.254 84.6182 20.9214C87.1628 21.5888 89.5286 22.8022 91.5485 24.476C93.5684 26.1498 95.1931 28.2431 96.3079 30.6081C97.4227 32.973 98.0003 35.5519 98 38.1626C97.9984 42.8908 96.1049 47.4252 92.7352 50.7696C89.3655 54.1141 84.7953 55.9953 80.0283 56H19.149C14.8633 55.9906 10.7564 54.295 7.72986 51.2853C4.7033 48.2756 2.99842 44.1978 3 39.9469Z" stroke="#388CE8" stroke-width="6" stroke-linejoin="round"/>
</svg>