<svg width="35" height="40" viewBox="0 0 35 40" fill="none" xmlns="http://www.w3.org/2000/svg">
<g id="Group 1707478044">
<rect id="Rectangle 3433" width="29" height="35.5556" rx="1.5" fill="#FEA65E"/>
<path id="Vector 12" d="M6.26 3.45703H18.26L32.51 3.70394C34.31 3.70394 34.51 5.43234 34.51 6.41999L34.26 29.136L24.26 39.0126H6.26C4.65999 39.0126 4.50997 38.0249 4.51 37.0373V6.41999C4.51 4.04962 4.26001 3.45703 6.26 3.45703Z" fill="white"/>
<rect id="Rectangle 3434" x="10.5" y="11.3579" width="18.5" height="2.96296" rx="1.48148" fill="#FEA65E"/>
<rect id="Rectangle 3435" x="10.5" y="16.79" width="18.5" height="2.96296" rx="1.48148" fill="#FEA65E"/>
<path id="Vector 11" d="M34.1789 29.4899L24.8592 39.113C24.5466 39.4357 24 39.2145 24 38.7651V29.1421C24 28.8659 24.2239 28.6421 24.5 28.6421H33.8197C34.2613 28.6421 34.4861 29.1727 34.1789 29.4899Z" fill="#FEA65E"/>
</g>
</svg>
