<svg xmlns="http://www.w3.org/2000/svg" width="25" height="24" viewBox="0 0 25 24" fill="none">
  <path d="M16.5957 14.2549H15.8057L15.5257 13.9849C16.5057 12.8449 17.0957 11.3649 17.0957 9.75488C17.0957 6.16488 14.1857 3.25488 10.5957 3.25488C7.0057 3.25488 4.0957 6.16488 4.0957 9.75488C4.0957 13.3449 7.0057 16.2549 10.5957 16.2549C12.2057 16.2549 13.6857 15.6649 14.8257 14.6849L15.0957 14.9649V15.7549L20.0957 20.7449L21.5857 19.2549L16.5957 14.2549ZM10.5957 14.2549C8.1057 14.2549 6.0957 12.2449 6.0957 9.75488C6.0957 7.26488 8.1057 5.25488 10.5957 5.25488C13.0857 5.25488 15.0957 7.26488 15.0957 9.75488C15.0957 12.2449 13.0857 14.2549 10.5957 14.2549Z" fill="black" fill-opacity="0.54"/>
</svg>