<svg xmlns="http://www.w3.org/2000/svg" width="32" height="32" viewBox="0 0 32 32" fill="none">
  <path fill-rule="evenodd" clip-rule="evenodd" d="M10.1533 20.8647H22.5646L26.764 27.3973H21.8194C21.4765 24.7644 19.225 22.7311 16.4987 22.7311C13.7723 22.7311 11.5209 24.7644 11.1779 27.3973H6L10.1533 20.8647Z" fill="#676767"/>
  <path fill-rule="evenodd" clip-rule="evenodd" d="M20.9948 18.0649H23.7309C24.2463 18.0649 24.6641 18.4828 24.6641 18.9982C24.6641 19.5136 24.2463 19.9314 23.7309 19.9314H8.79943C8.28403 19.9314 7.86621 19.5136 7.86621 18.9982C7.86621 18.4828 8.28403 18.0649 8.79943 18.0649H11.7476L13.2322 15.7319H19.2981L20.9948 18.0649Z" fill="#676767"/>
  <path fill-rule="evenodd" clip-rule="evenodd" d="M18.9095 12.9322H20.465C20.9804 12.9322 21.3982 13.35 21.3982 13.8654C21.3982 14.3808 20.9804 14.7987 20.465 14.7987H12.066C11.5506 14.7987 11.1328 14.3808 11.1328 13.8654C11.1328 13.35 11.5506 12.9322 12.066 12.9322H13.3622L14.3991 11.0659H17.6653L18.9095 12.9322Z" fill="#676767"/>
  <path d="M14.3989 8.03303C14.3989 7.13108 15.1301 6.3999 16.0321 6.3999C16.934 6.3999 17.6652 7.13108 17.6652 8.03303V10.1328H14.3989V8.03303Z" fill="#676767"/>
  <ellipse cx="16.0318" cy="6.86643" rx="0.933215" ry="1.86643" fill="#676767"/>
</svg>