<svg xmlns="http://www.w3.org/2000/svg" width="20" height="20" viewBox="0 0 20 20" fill="none">
  <path d="M3 7.66673C3 7.15127 3.41787 6.7334 3.93333 6.7334H6.36L6.73333 13.2667H3.93333C3.41787 13.2667 3 12.8489 3 12.3334V7.66673Z" fill="#6F90D1"/>
  <path d="M9.90647 4.12L6.17314 6.92C5.93812 7.09626 5.7998 7.37289 5.7998 7.66667V12.3333C5.7998 12.6271 5.93812 12.9037 6.17314 13.08L9.90647 15.88C10.5218 16.3415 11.3998 15.9024 11.3998 15.1333V4.86667C11.3998 4.09756 10.5218 3.65853 9.90647 4.12Z" fill="#6F90D1"/>
  <path d="M13.2666 7.2002C13.2666 7.2002 14.1999 7.89327 14.1999 10.0002C14.1999 12.1071 13.2666 12.8002 13.2666 12.8002" stroke="#6F90D1" stroke-width="1.86667" stroke-linecap="round"/>
  <path d="M16.0669 5.3335C16.0669 5.3335 17.0002 6.48863 17.0002 10.0002C17.0002 13.5117 16.0669 14.6668 16.0669 14.6668" stroke="#6F90D1" stroke-width="1.86667" stroke-linecap="round"/>
</svg>