<svg xmlns="http://www.w3.org/2000/svg" width="21" height="21" viewBox="0 0 21 21" fill="none">
  <path d="M18.375 18.375L13.125 13.125M2.625 8.75C2.625 9.55435 2.78343 10.3508 3.09124 11.0939C3.39905 11.8371 3.85021 12.5123 4.41897 13.081C4.98773 13.6498 5.66294 14.101 6.40606 14.4088C7.14918 14.7166 7.94565 14.875 8.75 14.875C9.55435 14.875 10.3508 14.7166 11.0939 14.4088C11.8371 14.101 12.5123 13.6498 13.081 13.081C13.6498 12.5123 14.101 11.8371 14.4088 11.0939C14.7166 10.3508 14.875 9.55435 14.875 8.75C14.875 7.94565 14.7166 7.14918 14.4088 6.40606C14.101 5.66294 13.6498 4.98773 13.081 4.41897C12.5123 3.85021 11.8371 3.39905 11.0939 3.09124C10.3508 2.78343 9.55435 2.625 8.75 2.625C7.94565 2.625 7.14918 2.78343 6.40606 3.09124C5.66294 3.39905 4.98773 3.85021 4.41897 4.41897C3.85021 4.98773 3.39905 5.66294 3.09124 6.40606C2.78343 7.14918 2.625 7.94565 2.625 8.75Z" stroke="#A8A8A8" stroke-width="2" stroke-linecap="round" stroke-linejoin="round"/>
</svg>