<svg xmlns="http://www.w3.org/2000/svg" width="13" height="14" viewBox="0 0 13 14" fill="none">
  <path d="M6.50002 5.375C6.06904 5.375 5.65572 5.5462 5.35097 5.85095C5.04622 6.1557 4.87502 6.56902 4.87502 7C4.87502 7.43098 5.04622 7.8443 5.35097 8.14905C5.65572 8.4538 6.06904 8.625 6.50002 8.625C6.931 8.625 7.34432 8.4538 7.64907 8.14905C7.95381 7.8443 8.12502 7.43098 8.12502 7C8.12502 6.56902 7.95381 6.1557 7.64907 5.85095C7.34432 5.5462 6.931 5.375 6.50002 5.375ZM6.50002 9.70833C5.78173 9.70833 5.09285 9.42299 4.58494 8.91508C4.07703 8.40717 3.79169 7.71829 3.79169 7C3.79169 6.28171 4.07703 5.59283 4.58494 5.08492C5.09285 4.57701 5.78173 4.29167 6.50002 4.29167C7.21831 4.29167 7.90719 4.57701 8.4151 5.08492C8.92301 5.59283 9.20835 6.28171 9.20835 7C9.20835 7.71829 8.92301 8.40717 8.4151 8.91508C7.90719 9.42299 7.21831 9.70833 6.50002 9.70833ZM6.50002 2.9375C3.79169 2.9375 1.47877 4.62208 0.541687 7C1.47877 9.37792 3.79169 11.0625 6.50002 11.0625C9.20835 11.0625 11.5213 9.37792 12.4584 7C11.5213 4.62208 9.20835 2.9375 6.50002 2.9375Z" fill="#DDDDDF"/>
  <path d="M2.16669 3.20825L11.9167 10.7916" stroke="#C6C7C9" stroke-linecap="round"/>
</svg>