<svg xmlns="http://www.w3.org/2000/svg" width="12" height="17" viewBox="0 0 12 17" fill="none">
  <path d="M6 0.5C2.68286 0.5 0 3.004 0 6.1C0 10.3 6 16.5 6 16.5C6 16.5 12 10.3 12 6.1C12 3.004 9.31714 0.5 6 0.5ZM6 8.1C5.43168 8.1 4.88663 7.88929 4.48477 7.51421C4.08291 7.13914 3.85714 6.63043 3.85714 6.1C3.85714 5.56957 4.08291 5.06086 4.48477 4.68579C4.88663 4.31071 5.43168 4.1 6 4.1C6.56832 4.1 7.11337 4.31071 7.51523 4.68579C7.91709 5.06086 8.14286 5.56957 8.14286 6.1C8.14286 6.63043 7.91709 7.13914 7.51523 7.51421C7.11337 7.88929 6.56832 8.1 6 8.1Z" fill="#DDDDDF"/>
</svg>