<svg xmlns="http://www.w3.org/2000/svg" width="22" height="23" viewBox="0 0 22 23" fill="none">
  <path d="M19.75 20.5L14.0833 14.8333M2.75 10.1111C2.75 10.9793 2.921 11.839 3.25324 12.6411C3.58548 13.4432 4.07245 14.172 4.68635 14.7859C5.30025 15.3998 6.02905 15.8867 6.83115 16.219C7.63325 16.5512 8.49293 16.7222 9.36111 16.7222C10.2293 16.7222 11.089 16.5512 11.8911 16.219C12.6932 15.8867 13.422 15.3998 14.0359 14.7859C14.6498 14.172 15.1367 13.4432 15.469 12.6411C15.8012 11.839 15.9722 10.9793 15.9722 10.1111C15.9722 9.24293 15.8012 8.38325 15.469 7.58115C15.1367 6.77905 14.6498 6.05025 14.0359 5.43635C13.422 4.82245 12.6932 4.33548 11.8911 4.00324C11.089 3.671 10.2293 3.5 9.36111 3.5C8.49293 3.5 7.63325 3.671 6.83115 4.00324C6.02905 4.33548 5.30025 4.82245 4.68635 5.43635C4.07245 6.05025 3.58548 6.77905 3.25324 7.58115C2.921 8.38325 2.75 9.24293 2.75 10.1111Z" stroke="#C6C7C9" stroke-width="2" stroke-linecap="round" stroke-linejoin="round"/>
</svg>