<svg xmlns="http://www.w3.org/2000/svg" width="14" height="14" viewBox="0 0 14 14" fill="none">
  <path d="M0 1C0 0.447716 0.447715 0 1 0H13C13.5523 0 14 0.447715 14 1V13C14 13.5523 13.5523 14 13 14H1C0.447716 14 0 13.5523 0 13V1ZM12.7826 2.21739C12.7826 1.6651 12.3349 1.21738 11.7826 1.21738H2.2174C1.66511 1.21738 1.2174 1.6651 1.2174 2.21738V11.7826C1.2174 12.3349 1.66511 12.7826 2.2174 12.7826H11.7826C12.3349 12.7826 12.7826 12.3349 12.7826 11.7826V2.21739ZM1.46943 11.6505C1.23174 11.8881 0.846401 11.8881 0.608727 11.6505C0.371036 11.4128 0.371035 11.0274 0.608723 10.7897L3.96769 7.43074C4.35798 7.04046 4.99066 7.04018 5.38129 7.43012L7.4549 9.50011C7.84553 9.89006 8.47822 9.88978 8.8685 9.49949L9.77995 8.58804C10.1708 8.19721 10.8045 8.19756 11.1949 8.58881L13.3916 10.7903C13.6291 11.0283 13.6287 11.4138 13.3907 11.6513C13.1527 11.8889 12.7672 11.8885 12.5297 11.6505L11.1937 10.3119C10.8033 9.92068 10.1696 9.92037 9.77882 10.3112L8.86849 11.2215C8.47821 11.6118 7.84552 11.6121 7.45489 11.2221L5.38122 9.15207C4.99062 8.76215 4.35797 8.7624 3.96768 9.15263L1.46943 11.6505ZM8.16261 2.90348C9.14088 2.90348 9.93392 3.69652 9.93392 4.67478C9.93392 5.65305 9.14088 6.44608 8.16261 6.44608C7.18435 6.44608 6.39133 5.65305 6.39133 4.67478C6.39235 3.69694 7.18487 2.90452 8.16261 2.90348ZM8.16261 5.2287C8.46854 5.2287 8.71653 4.98069 8.71653 4.67478C8.71653 4.36888 8.46852 4.12087 8.16261 4.12087C7.85669 4.12087 7.6087 4.36888 7.6087 4.67478C7.60904 4.98057 7.85688 5.22836 8.16261 5.2287Z" fill="#757575"/>
</svg>