<svg xmlns="http://www.w3.org/2000/svg" width="81" height="82" viewBox="0 0 81 82" fill="none">
  <g filter="url(#filter0_d_2066_6239)">
    <path d="M35.2544 43.2709L38.5567 41.893C38.8097 41.7897 38.9421 41.6963 39.1044 41.534L48.7245 31.9712C49.6859 31.018 49.6795 29.8746 48.7153 28.9022L46.5603 26.731C45.5862 25.7668 44.4446 25.754 43.4832 26.7072L33.8567 36.2664C33.6927 36.4205 33.5993 36.5464 33.4959 36.7995L32.0934 40.1036C31.8641 40.6439 31.9284 41.1859 32.3327 41.5903L33.7677 43.0317C34.1621 43.4279 34.7041 43.5084 35.2544 43.2709ZM35.0616 41.5248C34.8728 41.5911 34.7357 41.5893 34.5704 41.424L33.9403 40.7939C33.7751 40.6287 33.7733 40.4834 33.8477 40.3127L35.0636 37.4735L44.5881 28.0081C44.8559 27.7566 45.1575 27.742 45.4072 27.9917L47.4463 30.0472C47.696 30.3051 47.6814 30.6067 47.4218 30.8663L37.8991 40.3335L35.0616 41.5248ZM31.1847 43.7987H32.482C32.7884 43.7987 32.9063 43.7416 33.1241 43.5674L34.125 42.795L32.591 41.2382L30.8666 43.038C30.5546 43.3582 30.7061 43.7987 31.1847 43.7987ZM33.9561 37.4268L38.1561 41.6432L39.2271 40.5804L35.0271 36.3576L33.9561 37.4268ZM42.2783 29.1655L46.4747 33.3783L47.5493 32.3273L43.3493 28.1063L42.2783 29.1655ZM30.8666 47.345H50.0032C50.4818 47.345 50.878 46.9363 50.878 46.4613C50.878 45.9827 50.4818 45.5893 50.0032 45.5893H30.8666C30.388 45.5893 30 45.9845 30 46.4613C30 46.9345 30.3898 47.345 30.8666 47.345Z" fill="white"/>
  </g>
  <defs>
    <filter id="filter0_d_2066_6239" x="-2" y="-1" width="84" height="84" filterUnits="userSpaceOnUse" color-interpolation-filters="sRGB">
      <feFlood flood-opacity="0" result="BackgroundImageFix"/>
      <feColorMatrix in="SourceAlpha" type="matrix" values="0 0 0 0 0 0 0 0 0 0 0 0 0 0 0 0 0 0 127 0" result="hardAlpha"/>
      <feOffset dy="4"/>
      <feGaussianBlur stdDeviation="15"/>
      <feComposite in2="hardAlpha" operator="out"/>
      <feColorMatrix type="matrix" values="0 0 0 0 0 0 0 0 0 0 0 0 0 0 0 0 0 0 0.15 0"/>
      <feBlend mode="normal" in2="BackgroundImageFix" result="effect1_dropShadow_2066_6239"/>
      <feBlend mode="normal" in="SourceGraphic" in2="effect1_dropShadow_2066_6239" result="shape"/>
    </filter>
  </defs>
</svg>