<svg xmlns="http://www.w3.org/2000/svg" width="32" height="32" viewBox="0 0 32 32" fill="none">
  <rect x="5.27295" y="18.1821" width="21.455" height="5.27283" rx="0.909109" fill="#FF808C"/>
  <path d="M3.83591 22.995C3.87923 22.8371 4.02281 22.7275 4.18661 22.7275H27.996C28.1598 22.7275 28.3034 22.8371 28.3467 22.995L29.6928 27.9042C29.7562 28.1357 29.5821 28.364 29.3421 28.364H2.84054C2.60056 28.364 2.42639 28.1357 2.48984 27.9042L3.83591 22.995Z" fill="#E1E1E1"/>
  <path d="M25.5567 14.1821H6.99756C6.94177 14.1821 6.88997 14.2067 6.85522 14.2504C6.09738 15.2024 4.60469 16.8312 3.2992 17.7707C3.12517 17.896 3.26254 18.4549 3.47696 18.4549H28.8872C29.1017 18.4549 29.2231 17.9275 29.0496 17.8015C27.7898 16.8875 26.6579 15.311 25.6903 14.2409C25.6561 14.2031 25.6078 14.1821 25.5567 14.1821Z" fill="#FFDDA1"/>
  <rect x="6.90918" y="12.3638" width="18.7276" height="1.81822" fill="#FF808C"/>
  <path d="M23.5546 5.81822H8.43519C8.32762 5.81822 8.24384 5.72544 8.2454 5.61788C8.25469 4.97964 8.03317 4 7.05244 4C5.97753 4 5.18505 5.16503 6.97085 7.35596C7.0188 7.41478 7.02823 7.49789 6.9891 7.56291C6.41483 8.51707 4.82817 10.481 2.53327 11.5336C2.51586 11.5415 2.49974 11.552 2.48587 11.5652C2.1299 11.9044 1.80765 12.5456 3.23418 12.5456H28.4165C29.82 12.5456 29.8129 12.0942 29.6201 11.8447C29.6062 11.8268 29.5876 11.8127 29.5676 11.8023C26.2246 10.054 25.074 8.28087 24.8878 7.53337C24.8753 7.48334 24.89 7.43058 24.9214 7.38967C26.4571 5.38812 25.8084 4 24.871 4C23.8759 4 23.77 5.00852 23.7361 5.64568C23.7309 5.74243 23.6515 5.81822 23.5546 5.81822Z" fill="#FFDDA1"/>
  <path d="M8.54541 21.1821C8.54541 20.6299 8.99313 20.1821 9.54543 20.1821C10.0977 20.1821 10.5454 20.6299 10.5454 21.1821V22.7276H8.54541V21.1821Z" fill="#777777"/>
  <path d="M12.9092 21.1821C12.9092 20.6299 13.3569 20.1821 13.9092 20.1821C14.4615 20.1821 14.9092 20.6299 14.9092 21.1821V22.7276H12.9092V21.1821Z" fill="#777777"/>
  <path d="M17.0913 21.1821C17.0913 20.6299 17.539 20.1821 18.0913 20.1821C18.6436 20.1821 19.0913 20.6299 19.0913 21.1821V22.7276H17.0913V21.1821Z" fill="#777777"/>
  <path d="M21.6367 21.1821C21.6367 20.6299 22.0844 20.1821 22.6367 20.1821C23.189 20.1821 23.6368 20.6299 23.6368 21.1821V22.7276H21.6367V21.1821Z" fill="#777777"/>
</svg>