<svg xmlns="http://www.w3.org/2000/svg" width="32" height="32" viewBox="0 0 32 32" fill="none">
  <path d="M28 15.5C28 22.4036 22.4036 28 15.5 28C8.59644 28 3 22.4036 3 15.5C3 8.59644 8.59644 3 15.5 3C22.4036 3 28 8.59644 28 15.5Z" fill="#C2F3FF"/>
  <path d="M28.0594 16.3273C28.0594 11.4559 26.8507 9.24984 25.0125 8.14704C23.1743 7.04424 18.1329 8.97431 18.1329 8.97431C16.0741 9.26843 16.0496 11.0576 16.2947 11.9155C16.8829 13.3861 18.7456 13.7537 19.6035 13.7537C20.78 13.7537 21.8094 15.4694 22.177 16.3273C22.177 16.3273 23.3389 19.4842 25.0125 19.5442C26.7417 19.6061 28.0594 16.3273 28.0594 16.3273Z" fill="#78EB7B"/>
  <path d="M9.21138 17.8438C9.94159 18.3608 10.3067 19.2225 10.3067 19.9118C10.3067 19.9118 8.54812 23.4502 6.6302 23.2206C4.92536 23.0166 4.05666 19.9118 4.05666 19.9118C4.05666 19.9118 3.63166 18.8675 3.73492 17.8438C4.10003 14.2248 9.21138 17.8438 9.21138 17.8438Z" fill="#78EB7B"/>
  <path d="M17.6323 21.9935C18.1191 22.5368 18.3676 22.9272 18.3676 23.6517C18.3676 23.6517 17.1952 27.3706 15.9166 27.1293C14.7801 26.9148 15.9555 24.9171 15.4264 23.6517C15.0337 22.7123 13.9176 22.554 13.9864 21.4782C14.2299 17.6745 17.6323 21.9935 17.6323 21.9935Z" fill="#78EB7B"/>
</svg>