<svg xmlns="http://www.w3.org/2000/svg" width="32" height="32" viewBox="0 0 32 32" fill="none">
  <path d="M22.0928 31.5H11.3487L11.837 20L5.97656 9H8.9068L13.3021 14.5H19.1626C19.944 16.5 20.1394 17.3333 20.1394 17.5V22.5L22.0928 31.5Z" fill="#7ECDA7"/>
  <path d="M8.90674 30.5C8.90674 30.5 8.90674 29 16.7207 29C24.5346 29 24.5346 30.5 24.5346 30.5V32H8.90674V30.5Z" fill="#FFBC44"/>
  <path fill-rule="evenodd" clip-rule="evenodd" d="M12.3679 7.09198L14.2191 7.7762C14.3602 7.82837 14.5187 7.79692 14.6292 7.69479L16.342 6.11208C16.4953 5.97045 16.7317 5.97045 16.8849 6.11208L18.5984 7.69541C18.7085 7.79721 18.8664 7.82882 19.0073 7.77728L20.7387 7.14383C21.052 7.02918 21.3611 7.32655 21.2566 7.64344C20.7476 9.18646 20.4212 9.88113 19.2055 10.1721C19.4301 10.5257 19.5576 10.9308 19.5576 11.3612C19.5576 12.7419 18.2457 13.8612 16.6274 13.8612C15.009 13.8612 13.6971 12.7419 13.6971 11.3612C13.6971 10.9496 13.8137 10.5612 14.0203 10.2188C12.6259 9.96625 12.1483 9.2875 11.8438 7.52094C11.7925 7.22361 12.0849 6.98738 12.3679 7.09198Z" fill="#7ECDA7"/>
  <ellipse cx="7.44186" cy="8" rx="2.44186" ry="2" fill="#7ECDA7"/>
  <path d="M8.90698 3.5C8.90698 4.60457 8.03237 5.5 6.95349 5.5C5.87461 5.5 5 4.60457 5 3.5C5 2.39543 6.95349 0 6.95349 0C6.95349 0 8.90698 2.39543 8.90698 3.5Z" fill="#FFEF5E"/>
  <path d="M17.6978 22.5L20.628 16H26.0001L23.0698 22.5H17.6978Z" fill="#7ECDA7"/>
</svg>