<svg xmlns="http://www.w3.org/2000/svg" width="145" height="35" viewBox="0 0 145 35" fill="none">
  <path d="M40.8718 8.44732C40.7102 8.44732 40.5458 8.44732 40.3813 8.45751C38.829 5.77694 36.5719 3.57288 33.8552 2.0847C31.1385 0.596521 28.066 -0.118904 24.9713 0.0161163C21.8767 0.151136 18.8782 1.13144 16.3014 2.85058C13.7246 4.56971 11.6681 6.96196 10.3552 9.76756C8.50063 10.1194 6.74758 10.8794 5.22301 11.9924C3.69844 13.1054 2.44052 14.5436 1.54038 16.2028C0.640234 17.8619 0.120404 19.7006 0.0185455 21.5854C-0.0833135 23.4703 0.235349 25.3542 0.951448 27.1007C1.66755 28.8472 2.76315 30.4126 4.1589 31.6834C5.55465 32.9542 7.21558 33.8987 9.02139 34.4484C10.8272 34.9981 12.7327 35.1392 14.5998 34.8616C16.4669 34.584 18.2488 33.8945 19.8166 32.8432C21.7002 33.5426 23.6937 33.9 25.703 33.8985C26.0203 33.8985 26.3507 33.8883 26.6899 33.8694H40.0436C40.3507 33.8883 40.6127 33.8985 40.866 33.8985C41.1193 33.8985 41.3813 33.8883 41.6884 33.8694H43.0261V33.7151C46.1635 33.1702 48.9826 31.469 50.9271 28.9473C52.8717 26.4256 53.8003 23.2667 53.5298 20.0938C53.2593 16.921 51.8093 13.9648 49.4659 11.8088C47.1226 9.65265 44.0562 8.45328 40.8718 8.44732ZM39.8209 23.6918C39.6299 23.0088 39.3086 22.3693 38.8747 21.8083C38.3187 21.111 37.6084 20.6438 36.703 20.3221C37.5552 20.0475 38.3102 19.533 38.8776 18.8403C39.3124 18.2766 39.6337 17.634 39.8238 16.948C40.014 17.6337 40.3348 18.2762 40.7685 18.8403C41.3347 19.5342 42.0894 20.0498 42.9417 20.325C42.0348 20.6496 41.3245 21.114 40.7685 21.8112C40.3348 22.3725 40.013 23.0119 39.8209 23.6947V23.6918ZM12.7467 12.2363C14.7806 12.2344 16.7671 12.8505 18.443 14.003C20.1189 15.1555 21.4051 16.7899 22.1312 18.6899C22.8572 20.5898 22.9889 22.6655 22.5088 24.6419C22.0286 26.6184 20.9593 28.4023 19.4425 29.7573C16.308 28.2262 13.8437 25.5989 12.5164 22.3728C11.189 19.1467 11.0908 15.5459 12.2402 12.2523C12.409 12.2435 12.5749 12.2392 12.7409 12.2392L12.7467 12.2363ZM12.7467 32.3235C10.3914 32.322 8.11148 31.4928 6.30554 29.9808C4.49961 28.4687 3.28252 26.3701 2.86702 24.0517C2.45151 21.7333 2.86402 19.3426 4.03244 17.2975C5.20087 15.2524 7.05087 13.683 9.25909 12.8636C8.38842 16.3658 8.65842 20.0545 10.0298 23.3926C11.4012 26.7307 13.8023 29.5439 16.8835 31.4225C15.5828 32.0147 14.1701 32.3205 12.7409 32.3192L12.7467 32.3235ZM26.6215 31.1925H26.5807C26.2896 31.21 25.9985 31.2187 25.7147 31.2187C24.5332 31.2188 23.3563 31.0721 22.211 30.7821C23.8122 29.0017 24.8785 26.8055 25.2871 24.4462C25.6958 22.0868 25.4303 19.66 24.5212 17.4448C23.6121 15.2296 22.0963 13.3159 20.1481 11.9238C18.1998 10.5317 15.8982 9.71773 13.508 9.57542C14.8238 7.40068 16.6968 5.61702 18.9332 4.40899C21.1696 3.20096 23.6882 2.61244 26.2284 2.70432C28.7685 2.79619 31.238 3.56513 33.3813 4.93157C35.5246 6.29801 37.2639 8.21232 38.4191 10.4764L38.8413 11.3018H38.8573C38.6608 14.833 38.3725 16.7573 37.5472 17.7865C36.6025 18.9713 34.7088 19.2144 30.6113 19.4837V21.1722C34.7088 21.4429 36.6025 21.6846 37.5472 22.8694C38.4919 24.0543 38.735 26.4691 38.9431 31.1954L26.6215 31.1925ZM41.5982 31.1925H41.5472C41.291 31.21 41.0771 31.2173 40.8776 31.2173H40.6986C40.9068 26.4735 41.1353 24.0645 42.0945 22.8665C43.0538 21.6685 44.9344 21.44 49.0305 21.1693V19.4808C44.9344 19.2115 43.0392 18.9684 42.0945 17.7835C41.2605 16.7399 40.9781 14.7719 40.7845 11.1387H40.882C43.467 11.1628 45.9432 12.1827 47.7953 13.9862C49.6474 15.7897 50.7328 18.2378 50.8257 20.8213C50.9185 23.4048 50.0116 25.9245 48.2937 27.8563C46.5758 29.788 44.1791 30.983 41.6025 31.1925H41.5982Z" fill="#040000"/>
  <path d="M59.4805 16.1883L61.0656 14.5711C61.6901 15.4998 62.7308 16.3964 64.316 16.3964C65.4368 16.3964 66.0292 15.868 66.0292 15.1795C66.0292 14.6832 65.757 14.2028 64.5081 14.0267L63.6435 13.8986C61.626 13.6075 60.2956 12.443 60.2956 10.7123C60.2956 8.72687 61.8647 7.23779 64.3465 7.23779C66.0438 7.23779 67.4688 7.96559 68.3014 8.96705L66.7657 10.6308C66.0976 9.903 65.2243 9.4474 64.3 9.4474C63.4033 9.4474 62.8749 9.92774 62.8749 10.4401C62.8749 10.9205 63.2432 11.3368 64.0918 11.459L64.9564 11.5871C67.2621 11.9292 68.6071 13.1053 68.6071 14.9976C68.6071 17.181 66.7818 18.6002 64.2679 18.6002C61.6741 18.606 60.2752 17.3266 59.4805 16.1883Z" fill="#231815"/>
  <path d="M69.3916 14.1868C69.3916 11.9612 70.8472 9.76758 73.9214 9.76758C76.9957 9.76758 78.4542 11.9612 78.4542 14.1868C78.4542 16.4124 76.9986 18.606 73.9214 18.606C70.8443 18.606 69.3916 16.4124 69.3916 14.1868ZM75.9724 14.1868C75.9724 12.8098 75.1223 11.9131 73.9214 11.9131C72.7206 11.9131 71.8719 12.8142 71.8719 14.1868C71.8719 15.5594 72.7206 16.4604 73.9214 16.4604C75.1223 16.4604 75.9724 15.5638 75.9724 14.1868Z" fill="#231815"/>
  <path d="M79.6553 6.9917H82.1094V18.3599H79.6553V6.9917Z" fill="#231815"/>
  <path d="M83.752 6.48535H86.2017V8.87108H83.752V6.48535ZM83.752 9.97879H86.2017V18.3689H83.752V9.97879Z" fill="#231815"/>
  <path d="M93.9197 17.5011C93.5993 17.841 93.2125 18.1116 92.7834 18.2961C92.3543 18.4806 91.8919 18.5752 91.4248 18.5739C89.0958 18.5739 87.4219 16.8607 87.4219 14.1707C87.4219 11.4808 89.0958 9.76753 91.4248 9.76753C91.894 9.76502 92.3586 9.86058 92.7887 10.0481C93.2188 10.2356 93.605 10.5109 93.9226 10.8563V6.9917H96.3738V18.3599H93.9197V17.5011ZM93.9197 15.3556V13.0019C93.5674 12.2974 92.7989 11.9131 92.0274 11.9131C90.8105 11.9131 89.8979 12.7137 89.8979 14.1707C89.8979 15.6278 90.8105 16.4284 92.0274 16.4284C92.7989 16.4284 93.5674 16.0441 93.9197 15.3556Z" fill="#231815"/>
  <path d="M59.7686 28.7269C59.7686 26.5173 61.2897 24.3237 64.2038 24.3237C65.901 24.3237 67.0859 25.0923 67.9505 26.3892L66.2693 27.7182C65.8326 27.0297 65.2503 26.4693 64.3479 26.4693C63.0189 26.4693 62.2504 27.3659 62.2504 28.7269C62.2504 30.0879 63.0189 30.9846 64.3479 30.9846C65.2445 30.9846 65.837 30.4242 66.2693 29.7357L67.9505 31.0646C67.0859 32.3616 65.901 33.1301 64.2038 33.1301C61.294 33.1301 59.7686 30.9365 59.7686 28.7269Z" fill="#231815"/>
  <path d="M68.543 28.7429C68.543 26.5173 69.9986 24.3237 73.0743 24.3237C76.1499 24.3237 77.6055 26.5173 77.6055 28.7429C77.6055 30.9685 76.1499 33.1621 73.0743 33.1621C69.9986 33.1621 68.543 30.9685 68.543 28.7429ZM75.1237 28.7429C75.1237 27.3659 74.2751 26.4693 73.0743 26.4693C71.8734 26.4693 71.0248 27.3659 71.0248 28.7429C71.0248 30.1199 71.8734 31.0166 73.0743 31.0166C74.2751 31.0166 75.1223 30.1199 75.1223 28.7429H75.1237Z" fill="#231815"/>
  <path d="M78.8066 24.5319H81.2564V25.6236C81.7047 24.8711 82.5854 24.3267 83.8343 24.3267C86.0279 24.3267 86.9405 25.8958 86.9405 27.9657V32.9293H84.4908V28.2146C84.4908 27.0777 83.9784 26.4678 82.8896 26.4678C82.5113 26.4692 82.1444 26.5978 81.8481 26.8331C81.5518 27.0684 81.3434 27.3966 81.2564 27.7648V32.9205H78.8066V24.5319Z" fill="#231815"/>
  <path d="M88.4922 24.5319H90.942V25.6236C91.3903 24.8711 92.2709 24.3267 93.5198 24.3267C95.7134 24.3267 96.6261 25.8958 96.6261 27.9657V32.9293H94.1763V28.2146C94.1763 27.0777 93.6639 26.4678 92.5752 26.4678C92.1968 26.4692 91.8299 26.5978 91.5337 26.8331C91.2374 27.0684 91.0289 27.3966 90.942 27.7648V32.9205H88.4922V24.5319Z" fill="#231815"/>
  <path d="M97.7461 28.7589C97.7461 26.101 99.5714 24.3237 102.037 24.3237C104.503 24.3237 106.072 25.9569 106.072 28.4067C106.064 28.7441 106.037 29.0809 105.992 29.4154H100.158C100.35 30.3761 101.023 31.0646 102.416 31.0646C103.376 31.0646 104.145 30.5042 104.561 29.9758L105.864 31.5915C105.412 32.0874 104.86 32.4821 104.245 32.7498C103.629 33.0175 102.964 33.152 102.293 33.1447C99.4753 33.1461 97.7461 31.1549 97.7461 28.7589ZM100.244 27.6381H103.702C103.606 26.7575 102.998 26.2932 102.037 26.2932C101.141 26.2932 100.516 26.7415 100.244 27.6381Z" fill="#231815"/>
  <path d="M106.842 28.7269C106.842 26.5173 108.363 24.3237 111.277 24.3237C112.974 24.3237 114.159 25.0923 115.024 26.3892L113.343 27.7182C112.906 27.0297 112.324 26.4693 111.421 26.4693C110.092 26.4693 109.324 27.3659 109.324 28.7269C109.324 30.0879 110.092 30.9846 111.421 30.9846C112.318 30.9846 112.91 30.4242 113.343 29.7357L115.024 31.0646C114.159 32.3616 112.974 33.1301 111.277 33.1301C108.363 33.1301 106.842 30.9365 106.842 28.7269Z" fill="#231815"/>
  <path d="M116.72 29.5271V26.4704H115.359V24.5315H116.8V22.4209H119.17V24.5315H121.011V26.4689H119.17V29.6712C119.17 30.6319 119.65 30.9813 120.547 30.9813H121.011V32.9187C120.658 32.9885 120.299 33.026 119.939 33.0308C117.809 33.0337 116.72 31.9769 116.72 29.5271Z" fill="#231815"/>
  <path d="M122.196 21.041H124.646V23.4267H122.196V21.041ZM122.196 24.5345H124.646V32.9245H122.196V24.5345Z" fill="#231815"/>
  <path d="M125.847 28.7429C125.847 26.5173 127.302 24.3237 130.378 24.3237C133.454 24.3237 134.909 26.5173 134.909 28.7429C134.909 30.9685 133.454 33.1621 130.378 33.1621C127.302 33.1621 125.847 30.9685 125.847 28.7429ZM132.427 28.7429C132.427 27.3659 131.579 26.4693 130.378 26.4693C129.177 26.4693 128.328 27.3659 128.328 28.7429C128.328 30.1199 129.177 31.0166 130.378 31.0166C131.579 31.0166 132.427 30.1199 132.427 28.7429Z" fill="#231815"/>
  <path d="M136.111 24.5319H138.561V25.6236C139.009 24.8711 139.89 24.3267 141.139 24.3267C143.333 24.3267 144.245 25.8958 144.245 27.9657V32.9293H141.788V28.2146C141.788 27.0777 141.276 26.4678 140.187 26.4678C139.809 26.4692 139.442 26.5978 139.146 26.8331C138.849 27.0684 138.641 27.3966 138.554 27.7648V32.9205H136.111V24.5319Z" fill="#231815"/>
</svg>