<svg xmlns="http://www.w3.org/2000/svg" width="106" height="63" viewBox="0 0 106 63" fill="none">
  <path d="M5 41.9469C4.99982 38.353 6.21548 34.863 8.45235 32.0357C10.6892 29.2084 13.8179 27.2074 17.3374 26.3531C17.4829 20.6426 19.8715 15.2144 23.9939 11.2256C28.1163 7.23671 33.6466 5.00279 39.4057 5.00001C42.7445 4.99763 46.0401 5.74812 49.0435 7.19477C52.0469 8.64141 54.6794 10.7463 56.7421 13.3505C58.4207 11.212 60.764 9.68298 63.4083 9.00055C66.0527 8.31812 68.8501 8.52048 71.3667 9.57622C73.8832 10.632 75.978 12.4821 77.3261 14.8394C78.6742 17.1968 79.2001 19.9295 78.8223 22.6137C81.4123 22.149 84.0736 22.254 86.6182 22.9214C89.1628 23.5888 91.5286 24.8022 93.5485 26.476C95.5684 28.1498 97.1931 30.2431 98.3079 32.6081C99.4227 34.973 100 37.5519 100 40.1626C99.9984 44.8908 98.1049 49.4252 94.7352 52.7696C91.3655 56.1141 86.7953 57.9953 82.0283 58H21.149C16.8633 57.9906 12.7564 56.295 9.72986 53.2853C6.7033 50.2756 4.99842 46.1978 5 41.9469Z" stroke="#F0F0F0" stroke-width="10" stroke-linejoin="round"/>
  <path d="M39.9157 5.00001C43.2815 4.99763 46.6038 5.74812 49.6315 7.19477C52.6592 8.64141 55.313 10.7463 57.3923 13.3504C59.0845 11.212 61.4468 9.68298 64.1125 9.00055C66.7782 8.31812 69.5983 8.52048 72.1351 9.57622C74.672 10.632 76.7838 12.4821 78.1428 14.8394C79.5017 17.1968 80.0319 19.9295 79.651 22.6137C82.262 22.149 84.9448 22.254 87.51 22.9214C90.0751 23.5888 92.4601 24.8022 94.4963 26.476C96.5326 28.1498 98.1704 30.2431 99.2942 32.6081C100.418 34.973 101 37.5519 101 40.1626C100.998 44.8908 99.0895 49.4252 95.6926 52.7696C92.2957 56.1141 87.6885 57.9953 82.883 58H21.5115C17.1911 57.9906 13.051 56.295 10 53.2853" stroke="#388CE8" stroke-width="10" stroke-linecap="round" stroke-linejoin="round"/>
</svg>