<svg xmlns="http://www.w3.org/2000/svg" width="105" height="63" viewBox="0 0 105 63" fill="none">
  <path d="M5 41.9469C4.99982 38.353 6.21548 34.863 8.45235 32.0357C10.6892 29.2084 13.8179 27.2074 17.3374 26.3531C17.4829 20.6426 19.8715 15.2144 23.9939 11.2256C28.1163 7.23671 33.6466 5.00279 39.4057 5.00001C42.7445 4.99763 46.0401 5.74812 49.0435 7.19477C52.0469 8.64141 54.6794 10.7463 56.7421 13.3505C58.4207 11.212 60.764 9.68298 63.4083 9.00055C66.0527 8.31812 68.8501 8.52048 71.3667 9.57622C73.8832 10.632 75.978 12.4821 77.3261 14.8394C78.6742 17.1968 79.2001 19.9295 78.8223 22.6137C81.4123 22.149 84.0736 22.254 86.6182 22.9214C89.1628 23.5888 91.5286 24.8022 93.5485 26.476C95.5684 28.1498 97.1931 30.2431 98.3079 32.6081C99.4227 34.973 100 37.5519 100 40.1626C99.9984 44.8908 98.1049 49.4252 94.7352 52.7696C91.3655 56.1141 86.7953 57.9953 82.0283 58H21.149C16.8633 57.9906 12.7564 56.295 9.72986 53.2853C6.7033 50.2756 4.99842 46.1978 5 41.9469Z" stroke="#F0F0F0" stroke-width="10" stroke-linejoin="round"/>
  <path d="M39 5.00001C42.3611 4.99763 45.6789 5.74812 48.7024 7.19477C51.7258 8.64141 54.376 10.7463 56.4525 13.3504C58.1424 11.212 60.5013 9.68298 63.1634 9.00055C65.8254 8.31812 68.6416 8.52048 71.175 9.57622C73.7083 10.632 75.8172 12.4821 77.1743 14.8394C78.5314 17.1968 79.0608 19.9295 78.6805 22.6137C81.2878 22.149 83.967 22.254 86.5286 22.9214C89.0902 23.5888 91.4719 24.8022 93.5053 26.476C95.5387 28.1498 97.1743 30.2431 98.2966 32.6081C99.4188 34.973 100 37.5519 100 40.1626C99.9984 44.8908 98.0922 49.4252 94.7 52.7696C91.3077 56.1141 86.7069 57.9953 81.908 58H45.4714" stroke="#388CE8" stroke-width="10" stroke-linecap="round" stroke-linejoin="round"/>
</svg>