<svg xmlns="http://www.w3.org/2000/svg" width="102" height="59" viewBox="0 0 102 59" fill="none">
  <path d="M3 39.9469C2.99982 36.353 4.21548 32.863 6.45235 30.0357C8.68921 27.2084 11.8179 25.2074 15.3374 24.3531C15.4829 18.6426 17.8715 13.2144 21.9939 9.22555C26.1163 5.23671 31.6466 3.00279 37.4057 3.00001C40.7445 2.99763 44.0401 3.74812 47.0435 5.19477C50.0469 6.64141 52.6794 8.74634 54.7421 11.3505C56.4207 9.21204 58.764 7.68298 61.4083 7.00055C64.0527 6.31812 66.8501 6.52048 69.3667 7.57622C71.8832 8.63197 73.978 10.4821 75.3261 12.8394C76.6742 15.1968 77.2001 17.9295 76.8223 20.6137C79.4123 20.149 82.0736 20.254 84.6182 20.9214C87.1628 21.5888 89.5286 22.8022 91.5485 24.476C93.5684 26.1498 95.1931 28.2431 96.3079 30.6081C97.4227 32.973 98.0003 35.5519 98 38.1626C97.9984 42.8908 96.1049 47.4252 92.7352 50.7696C89.3655 54.1141 84.7953 55.9953 80.0283 56H19.149C14.8633 55.9906 10.7564 54.295 7.72986 51.2853C4.7033 48.2756 2.99842 44.1978 3 39.9469Z" stroke="#F0F0F0" stroke-width="6" stroke-linejoin="round"/>
  <path d="M16.3373 24.3531C12.8179 25.2074 9.68921 27.2084 7.45235 30.0357C5.21548 32.863 3.99982 36.353 4 39.9469C3.99842 44.1978 5.7033 48.2756 8.72986 51.2853C11.7564 54.295 15.8633 55.9906 20.149 56H81.0283C85.7953 55.9953 90.3655 54.1141 93.7352 50.7696C97.1049 47.4252 98.9984 42.8908 99 38.1626C99.0003 35.5519 98.4227 32.973 97.3079 30.6081C96.1931 28.2431 94.5684 26.1498 92.5485 24.476C90.5286 22.8022 88.1628 21.5888 85.6182 20.9214C83.0736 20.254 80.4123 20.149 77.8223 20.6137C78.2001 17.9295 77.6742 15.1968 76.3261 12.8394C74.978 10.4821 72.8832 8.63197 70.3667 7.57622C67.8501 6.52048 65.0527 6.31812 62.4083 7.00055C59.764 7.68298 57.4207 9.21204 55.7421 11.3504C53.6794 8.74634 51.0469 6.64141 48.0435 5.19477C45.0401 3.74812 41.7445 2.99763 38.4057 3.00001" stroke="#388CE8" stroke-width="6" stroke-linecap="round" stroke-linejoin="round"/>
</svg>