<svg xmlns="http://www.w3.org/2000/svg" width="106" height="63" viewBox="0 0 106 63" fill="none">
  <path d="M5 41.9469C4.99982 38.353 6.21548 34.863 8.45235 32.0357C10.6892 29.2084 13.8179 27.2074 17.3374 26.3531C17.4829 20.6426 19.8715 15.2144 23.9939 11.2256C28.1163 7.23671 33.6466 5.00279 39.4057 5.00001C42.7445 4.99763 46.0401 5.74812 49.0435 7.19477C52.0469 8.64141 54.6794 10.7463 56.7421 13.3505C58.4207 11.212 60.764 9.68298 63.4083 9.00055C66.0527 8.31812 68.8501 8.52048 71.3667 9.57622C73.8832 10.632 75.978 12.4821 77.3261 14.8394C78.6742 17.1968 79.2001 19.9295 78.8223 22.6137C81.4123 22.149 84.0736 22.254 86.6182 22.9214C89.1628 23.5888 91.5286 24.8022 93.5485 26.476C95.5684 28.1498 97.1931 30.2431 98.3079 32.6081C99.4227 34.973 100 37.5519 100 40.1626C99.9984 44.8908 98.1049 49.4252 94.7352 52.7696C91.3655 56.1141 86.7953 57.9953 82.0283 58H21.149C16.8633 57.9906 12.7564 56.295 9.72986 53.2853C6.7033 50.2756 4.99842 46.1978 5 41.9469Z" stroke="#F0F0F0" stroke-width="10" stroke-linejoin="round"/>
  <path d="M18.3373 26.3531C14.8179 27.2074 11.6892 29.2084 9.45235 32.0357C7.21548 34.863 5.99982 38.353 6 41.9469C5.99842 46.1978 7.7033 50.2756 10.7299 53.2853C13.7564 56.295 17.8633 57.9906 22.149 58H83.0283C87.7953 57.9953 92.3655 56.1141 95.7352 52.7696C99.1049 49.4252 100.998 44.8908 101 40.1626C101 37.5519 100.423 34.973 99.3079 32.6081C98.1931 30.2431 96.5684 28.1498 94.5485 26.476C92.5286 24.8022 90.1628 23.5888 87.6182 22.9214C85.0736 22.254 82.4123 22.149 79.8223 22.6137C80.2001 19.9295 79.6742 17.1968 78.3261 14.8394C76.978 12.4821 74.8832 10.632 72.3667 9.57622C69.8501 8.52048 67.0527 8.31812 64.4083 9.00055C61.764 9.68298 59.4207 11.212 57.7421 13.3504C55.6794 10.7463 53.0469 8.64141 50.0435 7.19477C47.0401 5.74812 43.7445 4.99763 40.4057 5.00001" stroke="#388CE8" stroke-width="10" stroke-linecap="round" stroke-linejoin="round"/>
</svg>