<svg xmlns="http://www.w3.org/2000/svg" width="102" height="59" viewBox="0 0 102 59" fill="none">
  <path d="M3 39.9469C2.99982 36.353 4.21548 32.863 6.45235 30.0357C8.68921 27.2084 11.8179 25.2074 15.3374 24.3531C15.4829 18.6426 17.8715 13.2144 21.9939 9.22555C26.1163 5.23671 31.6466 3.00279 37.4057 3.00001C40.7445 2.99763 44.0401 3.74812 47.0435 5.19477C50.0469 6.64141 52.6794 8.74634 54.7421 11.3505C56.4207 9.21204 58.764 7.68298 61.4083 7.00055C64.0527 6.31812 66.8501 6.52048 69.3667 7.57622C71.8832 8.63197 73.978 10.4821 75.3261 12.8394C76.6742 15.1968 77.2001 17.9295 76.8223 20.6137C79.4123 20.149 82.0736 20.254 84.6182 20.9214C87.1628 21.5888 89.5286 22.8022 91.5485 24.476C93.5684 26.1498 95.1931 28.2431 96.3079 30.6081C97.4227 32.973 98.0003 35.5519 98 38.1626C97.9984 42.8908 96.1049 47.4252 92.7352 50.7696C89.3655 54.1141 84.7953 55.9953 80.0283 56H19.149C14.8633 55.9906 10.7564 54.295 7.72986 51.2853C4.7033 48.2756 2.99842 44.1978 3 39.9469Z" stroke="#F0F0F0" stroke-width="6" stroke-linejoin="round"/>
  <path d="M37.9157 3.00001C41.2815 2.99763 44.6038 3.74812 47.6315 5.19477C50.6592 6.64141 53.313 8.74634 55.3923 11.3504C57.0845 9.21204 59.4468 7.68298 62.1125 7.00055C64.7782 6.31812 67.5983 6.52048 70.1351 7.57622C72.672 8.63197 74.7838 10.4821 76.1428 12.8394C77.5017 15.1968 78.0319 17.9295 77.651 20.6137C80.262 20.149 82.9448 20.254 85.51 20.9214C88.0751 21.5888 90.4601 22.8022 92.4963 24.476C94.5326 26.1498 96.1704 28.2431 97.2942 30.6081C98.418 32.973 99.0003 35.5519 99 38.1626C98.9984 42.8908 97.0895 47.4252 93.6926 50.7696C90.2957 54.1141 85.6885 55.9953 80.883 56H19.5115C15.1911 55.9906 11.051 54.295 8 51.2853" stroke="#388CE8" stroke-width="6" stroke-linecap="round" stroke-linejoin="round"/>
</svg>