<svg xmlns="http://www.w3.org/2000/svg" viewBox="0 0 30 30" fill="none">
  <path d="M7.7813 16.0787V18.6555C7.7813 19.325 8.16394 19.9486 8.77616 20.2695L13.5591 22.773C14.1331 23.0757 14.8218 23.0757 15.3958 22.773L20.1788 20.2695C20.791 19.9486 21.1736 19.325 21.1736 18.6555V16.0787L15.3958 19.1049C14.8218 19.4075 14.1331 19.4075 13.5591 19.1049L7.7813 16.0787ZM13.5591 7.22009L5.49504 11.4385C4.83499 11.7869 4.83499 12.704 5.49504 13.0524L13.5591 17.2708C14.1331 17.5734 14.8218 17.5734 15.3958 17.2708L23.0868 13.245V18.6647C23.0868 19.1691 23.5173 19.5817 24.0434 19.5817C24.5695 19.5817 25 19.1691 25 18.6647V12.7865C25 12.4472 24.8087 12.1446 24.5026 11.9795L15.3958 7.22009C15.1132 7.07559 14.7978 7 14.4775 7C14.1571 7 13.8418 7.07559 13.5591 7.22009Z" fill="#837CF8"/>
</svg>