<svg xmlns="http://www.w3.org/2000/svg" width="30" height="30" viewBox="0 0 30 30" fill="none">
  <path d="M14.5994 22.8807C14.7164 22.9583 14.8562 23 14.9995 23C15.1429 23 15.2827 22.9583 15.3997 22.8807L15 22.3514L15.4006 22.8807L15.408 22.8755L15.4274 22.8625L15.5012 22.8123C15.5652 22.7691 15.656 22.706 15.7735 22.6229C17.1452 21.6529 18.44 20.591 19.6477 19.4454C20.7074 18.4353 21.7846 17.2547 22.6006 16.0024C23.4129 14.757 24 13.387 24 12.0136C24 10.3834 23.46 9.10941 22.5046 8.24454C21.5538 7.38487 20.2708 7 18.9231 7C17.3308 7 15.9249 7.72043 15 8.83092C14.0751 7.72043 12.6683 7 11.0769 7C8.23385 7 6 9.28238 6 12.0136C6 13.387 6.588 14.7561 7.39938 16.0024C8.21538 17.2547 9.29262 18.4353 10.3523 19.4463C11.6398 20.6667 13.0261 21.7921 14.4988 22.8123L14.5726 22.8625L14.592 22.8755L14.5994 22.8807Z" fill="#FF6568"/>
</svg>