<svg xmlns="http://www.w3.org/2000/svg" width="16" height="18" viewBox="0 0 16 18" fill="none">
  <path d="M8 13.7143C7.46957 13.7143 6.96086 13.5337 6.58579 13.2122C6.21071 12.8907 6 12.4547 6 12C6 11.0486 6.89 10.2857 8 10.2857C8.53043 10.2857 9.03914 10.4663 9.41421 10.7878C9.78929 11.1093 10 11.5453 10 12C10 12.4547 9.78929 12.8907 9.41421 13.2122C9.03914 13.5337 8.53043 13.7143 8 13.7143ZM14 16.2857V7.71429H2V16.2857H14ZM14 6C14.5304 6 15.0391 6.18061 15.4142 6.5021C15.7893 6.82359 16 7.25963 16 7.71429V16.2857C16 16.7404 15.7893 17.1764 15.4142 17.4979C15.0391 17.8194 14.5304 18 14 18H2C1.46957 18 0.960859 17.8194 0.585786 17.4979C0.210714 17.1764 0 16.7404 0 16.2857V7.71429C0 6.76286 0.89 6 2 6H3V4.28571C3 3.14907 3.52678 2.05898 4.46447 1.25526C5.40215 0.451529 6.67392 0 8 0C8.65661 0 9.30679 0.110853 9.91342 0.326231C10.52 0.541608 11.0712 0.857291 11.5355 1.25526C11.9998 1.65322 12.3681 2.12568 12.6194 2.64564C12.8707 3.16561 13 3.72291 13 4.28571V6H14ZM8 1.71429C7.20435 1.71429 6.44129 1.9852 5.87868 2.46744C5.31607 2.94968 5 3.60373 5 4.28571V6H11V4.28571C11 3.60373 10.6839 2.94968 10.1213 2.46744C9.55871 1.9852 8.79565 1.71429 8 1.71429Z" fill="#5950F6"/>
</svg>