<svg xmlns="http://www.w3.org/2000/svg" viewBox="0 0 20 20" fill="none">
  <path d="M2.5 14.1667H17.5C17.7361 14.1667 17.9342 14.2467 18.0942 14.4067C18.2542 14.5667 18.3339 14.7644 18.3333 15C18.3328 15.2356 18.2528 15.4336 18.0933 15.5942C17.9339 15.7547 17.7361 15.8344 17.5 15.8333H2.5C2.26389 15.8333 2.06611 15.7533 1.90667 15.5933C1.74722 15.4333 1.66722 15.2356 1.66667 15C1.66611 14.7644 1.74611 14.5667 1.90667 14.4067C2.06722 14.2467 2.265 14.1667 2.5 14.1667ZM3.33333 9.54167L2.9375 10.25C2.85417 10.4028 2.72917 10.5 2.5625 10.5417C2.39583 10.5833 2.23611 10.5625 2.08333 10.4792C1.93055 10.3958 1.83333 10.2708 1.79167 10.1042C1.75 9.9375 1.77083 9.77778 1.85417 9.625L2.25 8.91667H1.45833C1.27778 8.91667 1.12861 8.85778 1.01083 8.74C0.893054 8.62222 0.833888 8.47278 0.833332 8.29167C0.832777 8.11056 0.891943 7.96139 1.01083 7.84417C1.12972 7.72694 1.27889 7.66778 1.45833 7.66667H2.25L1.85417 7C1.77083 6.84722 1.75 6.6875 1.79167 6.52083C1.83333 6.35417 1.93055 6.22917 2.08333 6.14583C2.23611 6.0625 2.39583 6.04167 2.5625 6.08333C2.72917 6.125 2.85417 6.22222 2.9375 6.375L3.33333 7.04167L3.72917 6.375C3.8125 6.22222 3.9375 6.125 4.10417 6.08333C4.27083 6.04167 4.43055 6.0625 4.58333 6.14583C4.73611 6.22917 4.83333 6.35417 4.875 6.52083C4.91667 6.6875 4.89583 6.84722 4.8125 7L4.41667 7.66667H5.20833C5.38889 7.66667 5.53833 7.72583 5.65667 7.84417C5.775 7.9625 5.83389 8.11167 5.83333 8.29167C5.83278 8.47167 5.77361 8.62111 5.65583 8.74C5.53805 8.85889 5.38889 8.91778 5.20833 8.91667H4.41667L4.8125 9.625C4.89583 9.77778 4.91667 9.9375 4.875 10.1042C4.83333 10.2708 4.73611 10.3958 4.58333 10.4792C4.43055 10.5625 4.27083 10.5833 4.10417 10.5417C3.9375 10.5 3.8125 10.4028 3.72917 10.25L3.33333 9.54167ZM10 9.54167L9.60417 10.25C9.52083 10.4028 9.39583 10.5 9.22917 10.5417C9.0625 10.5833 8.90278 10.5625 8.75 10.4792C8.59722 10.3958 8.5 10.2708 8.45833 10.1042C8.41667 9.9375 8.4375 9.77778 8.52083 9.625L8.91667 8.91667H8.125C7.94444 8.91667 7.79528 8.85778 7.6775 8.74C7.55972 8.62222 7.50055 8.47278 7.5 8.29167C7.49944 8.11056 7.55861 7.96139 7.6775 7.84417C7.79639 7.72694 7.94555 7.66778 8.125 7.66667H8.91667L8.52083 7C8.4375 6.84722 8.41667 6.6875 8.45833 6.52083C8.5 6.35417 8.59722 6.22917 8.75 6.14583C8.90278 6.0625 9.0625 6.04167 9.22917 6.08333C9.39583 6.125 9.52083 6.22222 9.60417 6.375L10 7.04167L10.3958 6.375C10.4792 6.22222 10.6042 6.125 10.7708 6.08333C10.9375 6.04167 11.0972 6.0625 11.25 6.14583C11.4028 6.22917 11.5 6.35417 11.5417 6.52083C11.5833 6.6875 11.5625 6.84722 11.4792 7L11.0833 7.66667H11.875C12.0556 7.66667 12.2047 7.72583 12.3225 7.84417C12.4403 7.9625 12.4994 8.11167 12.5 8.29167C12.5006 8.47167 12.4414 8.62111 12.3225 8.74C12.2036 8.85889 12.0544 8.91778 11.875 8.91667H11.0833L11.4792 9.625C11.5625 9.77778 11.5833 9.9375 11.5417 10.1042C11.5 10.2708 11.4028 10.3958 11.25 10.4792C11.0972 10.5625 10.9375 10.5833 10.7708 10.5417C10.6042 10.5 10.4792 10.4028 10.3958 10.25L10 9.54167ZM16.6667 9.54167L16.2708 10.25C16.1875 10.4028 16.0625 10.5 15.8958 10.5417C15.7292 10.5833 15.5694 10.5625 15.4167 10.4792C15.2639 10.3958 15.1667 10.2708 15.125 10.1042C15.0833 9.9375 15.1042 9.77778 15.1875 9.625L15.5833 8.91667H14.7917C14.6111 8.91667 14.4619 8.85778 14.3442 8.74C14.2264 8.62222 14.1672 8.47278 14.1667 8.29167C14.1661 8.11056 14.2253 7.96139 14.3442 7.84417C14.4631 7.72694 14.6122 7.66778 14.7917 7.66667H15.5833L15.1875 7C15.1042 6.84722 15.0833 6.6875 15.125 6.52083C15.1667 6.35417 15.2639 6.22917 15.4167 6.14583C15.5694 6.0625 15.7292 6.04167 15.8958 6.08333C16.0625 6.125 16.1875 6.22222 16.2708 6.375L16.6667 7.04167L17.0625 6.375C17.1458 6.22222 17.2708 6.125 17.4375 6.08333C17.6042 6.04167 17.7639 6.0625 17.9167 6.14583C18.0694 6.22917 18.1667 6.35417 18.2083 6.52083C18.25 6.6875 18.2292 6.84722 18.1458 7L17.75 7.66667H18.5417C18.7222 7.66667 18.8717 7.72583 18.99 7.84417C19.1083 7.9625 19.1672 8.11167 19.1667 8.29167C19.1661 8.47167 19.1069 8.62111 18.9892 8.74C18.8714 8.85889 18.7222 8.91778 18.5417 8.91667H17.75L18.1458 9.625C18.2292 9.77778 18.25 9.9375 18.2083 10.1042C18.1667 10.2708 18.0694 10.3958 17.9167 10.4792C17.7639 10.5625 17.6042 10.5833 17.4375 10.5417C17.2708 10.5 17.1458 10.4028 17.0625 10.25L16.6667 9.54167Z" fill="#76797D"/>
</svg>