<svg xmlns="http://www.w3.org/2000/svg" width="12" height="12" viewBox="0 0 12 12" fill="none">
  <path d="M5.99988 12C9.27653 12 12 9.28236 12 6C12 2.72342 9.2705 0 5.99385 0C2.71168 0 0 2.72342 0 6C0 9.28236 2.71745 12 5.99988 12ZM5.99435 6.88246C5.68237 6.88246 5.51195 6.69999 5.49991 6.38802L5.41758 3.48264C5.40579 3.15887 5.65276 2.92972 5.98808 2.92972C6.31763 2.92972 6.57037 3.1649 6.55883 3.48841L6.47625 6.38852C6.46445 6.70602 6.28801 6.88271 5.9941 6.88271M5.9941 9.04744C5.65276 9.04744 5.33501 8.77688 5.33501 8.41195C5.33501 8.04702 5.64699 7.77696 5.9941 7.77696C6.3352 7.77696 6.6527 8.0415 6.6527 8.41195C6.6527 8.78265 6.32917 9.04744 5.9941 9.04744Z" fill="#E22A2D"/>
</svg>