<svg xmlns="http://www.w3.org/2000/svg" width="29" height="42" viewBox="0 0 29 42" fill="none">
  <rect width="29" height="42" rx="4" fill="#8AA5F4"/>
  <path d="M7 5V6.66667C7 7.40305 7.59695 8 8.33333 8H20.6667C21.403 8 22 7.40305 22 6.66667V5" stroke="#4672EE" stroke-width="2" stroke-linecap="round"/>
  <path d="M22.8784 37H6.38361C6.20351 37 6.02326 36.9681 5.86809 36.8767C3.72013 35.6112 1.91222 29.9372 9.49883 28.0384C9.60023 28.0131 9.70865 28 9.81318 28H18.8759C18.9602 28 19.048 28.0085 19.1306 28.0251C26.9825 29.5976 25.2991 35.4682 23.4573 36.8354C23.2915 36.9586 23.085 37 22.8784 37Z" fill="#E8EDFD"/>
  <ellipse cx="14" cy="21.5" rx="5" ry="5.5" fill="#E8EDFD"/>
</svg>