<svg xmlns="http://www.w3.org/2000/svg" width="39" height="40" viewBox="0 0 39 40" fill="none">
  <path d="M38.4968 34.4889L29.2914 25.2847C28.9662 24.9595 28.5253 24.7789 28.0628 24.7789H26.8848C28.8795 22.2282 30.0647 19.0199 30.0647 15.5298C30.0647 7.22727 23.3363 0.5 15.0324 0.5C6.72842 0.5 0 7.22727 0 15.5298C0 23.8323 6.72842 30.5596 15.0324 30.5596C18.523 30.5596 21.7319 29.3745 24.283 27.3802V28.558C24.283 29.0205 24.4637 29.4612 24.7889 29.7864L33.9943 38.9906C34.6737 39.6698 35.7722 39.6698 36.4443 38.9906L38.4896 36.9457C39.1689 36.2664 39.1689 35.1681 38.4968 34.4889ZM15.0324 24.7789C9.9228 24.7789 5.78167 20.6457 5.78167 15.5298C5.78167 10.4211 9.91557 6.28069 15.0324 6.28069C20.1419 6.28069 24.283 10.4139 24.283 15.5298C24.283 20.6385 20.1491 24.7789 15.0324 24.7789Z" fill="#A2B7F6"/>
  <path d="M15.0324 24.7789C9.9228 24.7789 5.78167 20.6457 5.78167 15.5298C5.78167 10.4211 9.91557 6.28069 15.0324 6.28069C20.1419 6.28069 24.283 10.4139 24.283 15.5298C24.283 20.6385 20.1491 24.7789 15.0324 24.7789Z" fill="#4672EE"/>
</svg>