<svg xmlns="http://www.w3.org/2000/svg" width="35" height="40" viewBox="0 0 35 40" fill="none">
  <rect width="29" height="36" rx="1.5" fill="#4672EE"/>
  <path d="M6.75941 3H18.7554L33.0007 3.25C34.8001 3.25 35 5 35 6L34.7501 29L24.7534 39H6.75941C5.15994 39 5.00997 38 5.01 37V6C5.01 3.6 4.76009 3 6.75941 3Z" fill="#A2B7F6"/>
  <rect x="10" y="11" width="19" height="3" rx="1.5" fill="#E8EDFD"/>
  <rect x="11" y="17" width="19" height="3" rx="1.5" fill="#E8EDFD"/>
  <path d="M34.1464 29.8536L24.8536 39.1464C24.5386 39.4614 24 39.2383 24 38.7929V29.5C24 29.2239 24.2239 29 24.5 29H33.7929C34.2383 29 34.4614 29.5386 34.1464 29.8536Z" fill="#5C82F0"/>
</svg>