<svg width="55" height="54" viewBox="0 0 55 54" fill="none" xmlns="http://www.w3.org/2000/svg">
<g id="Mask group">
<mask id="mask0_1126_8520" style="mask-type:alpha" maskUnits="userSpaceOnUse" x="0" y="0" width="55" height="54">
<circle id="Ellipse 33" cx="27.5" cy="27" r="27" fill="#EFEEFF"/>
</mask>
<g mask="url(#mask0_1126_8520)">
<path id="Vector" d="M27.4995 9.71973C30.2206 9.71973 32.8303 10.8021 34.7544 12.7289C36.6785 14.6556 37.7595 17.2688 37.7595 19.9936C37.7595 22.7184 36.6785 25.3316 34.7544 27.2583C32.8303 29.185 30.2206 30.2674 27.4995 30.2674C24.7784 30.2674 22.1687 29.185 20.2446 27.2583C18.3205 25.3316 17.2395 22.7184 17.2395 19.9936C17.2395 17.2688 18.3205 14.6556 20.2446 12.7289C22.1687 10.8021 24.7784 9.71973 27.4995 9.71973ZM27.4995 35.4043C38.8368 35.4043 48.0195 40.0019 48.0195 45.6782V62.5566C31.9924 68.4274 23.0066 68.4274 6.97949 62.5566V45.6782C6.97949 40.0019 16.1622 35.4043 27.4995 35.4043Z" fill="#837CF8"/>
</g>
</g>
</svg>
