<svg width="64" height="64" viewBox="0 0 64 64" fill="none" xmlns="http://www.w3.org/2000/svg">
<rect width="64" height="64" rx="32" fill="#E8EDFD"/>
<path d="M32 16C33.9155 16 35.7525 16.7841 37.1069 18.1797C38.4613 19.5753 39.2222 21.4682 39.2222 23.4419C39.2222 25.4156 38.4613 27.3084 37.1069 28.7041C35.7525 30.0997 33.9155 30.8837 32 30.8837C30.0845 30.8837 28.2475 30.0997 26.8931 28.7041C25.5387 27.3084 24.7778 25.4156 24.7778 23.4419C24.7778 21.4682 25.5387 19.5753 26.8931 18.1797C28.2475 16.7841 30.0845 16 32 16ZM32 34.6047C39.9806 34.6047 45 37.9349 45 42.0465V48H19V42.0465C19 37.9349 24.0194 34.6047 32 34.6047Z" fill="#333333"/>
</svg>
