<svg xmlns="http://www.w3.org/2000/svg" width="18" height="20" viewBox="0 0 18 20" fill="none">
  <path d="M0.84375 15.2303C0.84375 15.7027 1.20938 16.0843 1.66193 16.0843H16.3381C16.7906 16.0843 17.1562 15.7027 17.1562 15.2303V9.01264C17.1562 4.31067 13.5051 0.5 9 0.5C4.49489 0.5 0.84375 4.31067 0.84375 9.01264V15.2303ZM2.68466 9.01264C2.68466 5.37275 5.5125 2.42135 9 2.42135C12.4875 2.42135 15.3153 5.37275 15.3153 9.01264V14.1629H6.23864V9.59972C6.23864 9.45295 6.12358 9.33286 5.98295 9.33286H4.85795C4.71733 9.33286 4.60227 9.45295 4.60227 9.59972V14.1629H2.68466V9.01264ZM17.1818 17.7921H0.818182C0.365625 17.7921 0 18.1737 0 18.6461V19.2865C0 19.4039 0.0920454 19.5 0.204545 19.5H17.7955C17.908 19.5 18 19.4039 18 19.2865V18.6461C18 18.1737 17.6344 17.7921 17.1818 17.7921Z" fill="#4672EE"/>
</svg>