<svg xmlns="http://www.w3.org/2000/svg" viewBox="0 0 51 51" fill="none">
  <path d="M18 33C20.125 34.575 22.7125 35.5 25.5 35.5C28.2875 35.5 30.875 34.575 33 33" stroke="url(#paint0_linear_2096_14847)" stroke-width="3.5" stroke-linecap="round" stroke-linejoin="round"/>
  <path d="M48 25.5C48 28.4547 47.418 31.3806 46.2873 34.1104C45.1566 36.8402 43.4992 39.3206 41.4099 41.4099C39.3206 43.4992 36.8402 45.1566 34.1104 46.2873C31.3806 47.418 28.4547 48 25.5 48C22.5453 48 19.6194 47.418 16.8896 46.2873C14.1598 45.1566 11.6794 43.4992 9.5901 41.4099C7.50078 39.3206 5.84344 36.8402 4.71271 34.1104C3.58198 31.3806 3 28.4547 3 25.5C3 19.5326 5.37053 13.8097 9.5901 9.5901C13.8097 5.37053 19.5326 3 25.5 3C31.4674 3 37.1903 5.37053 41.4099 9.5901C45.6295 13.8097 48 19.5326 48 25.5Z" stroke="url(#paint1_linear_2096_14847)" stroke-width="5" stroke-linecap="round" stroke-linejoin="round"/>
  <circle cx="18.4167" cy="21.3334" r="2.5" fill="url(#paint2_linear_2096_14847)"/>
  <circle cx="33.4167" cy="21.3334" r="2.5" fill="url(#paint3_linear_2096_14847)"/>
  <defs>
    <linearGradient id="paint0_linear_2096_14847" x1="34.6667" y1="32.1667" x2="16.3333" y2="32.1667" gradientUnits="userSpaceOnUse">
      <stop stop-color="#5950F6"/>
      <stop offset="1" stop-color="#388CE8"/>
    </linearGradient>
    <linearGradient id="paint1_linear_2096_14847" x1="49.6667" y1="28" x2="1.33333" y2="27.1667" gradientUnits="userSpaceOnUse">
      <stop stop-color="#5950F6"/>
      <stop offset="1" stop-color="#388CE8"/>
    </linearGradient>
    <linearGradient id="paint2_linear_2096_14847" x1="63.4168" y1="21.3334" x2="-6.58325" y2="22.5834" gradientUnits="userSpaceOnUse">
      <stop stop-color="#5950F6"/>
      <stop offset="1" stop-color="#388CE8"/>
    </linearGradient>
    <linearGradient id="paint3_linear_2096_14847" x1="58.4167" y1="22.5834" x2="-11.5833" y2="22.5834" gradientUnits="userSpaceOnUse">
      <stop stop-color="#5950F6"/>
      <stop offset="1" stop-color="#388CE8"/>
    </linearGradient>
  </defs>
</svg>