<svg xmlns="http://www.w3.org/2000/svg" width="26" height="18" viewBox="0 0 26 18" fill="none">
  <path d="M19.8348 4.34434C19.7564 4.34434 19.6766 4.34434 19.5968 4.34958C18.8434 2.971 17.7481 1.83748 16.4297 1.07213C15.1113 0.306782 13.6203 -0.0611505 12.1184 0.0082884C10.6166 0.0777273 9.16145 0.581884 7.91096 1.46601C6.66047 2.35014 5.66245 3.58044 5.02529 5.02331C4.1253 5.20428 3.27456 5.59512 2.53469 6.16752C1.79483 6.73993 1.18437 7.47956 0.747536 8.33285C0.310702 9.18614 0.0584315 10.1317 0.00900001 11.1011C-0.0404315 12.0704 0.114213 13.0393 0.461732 13.9375C0.80925 14.8357 1.34094 15.6408 2.01829 16.2943C2.69563 16.9479 3.50168 17.4336 4.37802 17.7163C5.25437 17.999 6.17908 18.0716 7.08517 17.9288C7.99126 17.786 8.85603 17.4315 9.61685 16.8908C10.531 17.2505 11.4984 17.4343 12.4735 17.4335C12.6275 17.4335 12.7878 17.4283 12.9524 17.4185H19.4329C19.5819 17.4283 19.7091 17.4335 19.832 17.4335C19.9549 17.4335 20.0821 17.4283 20.2311 17.4185H20.8803V17.3392C22.4028 17.0589 23.7709 16.1841 24.7146 14.8872C25.6583 13.5903 26.1089 11.9657 25.9777 10.334C25.8464 8.70224 25.1427 7.18192 24.0055 6.07307C22.8683 4.96422 21.3802 4.3474 19.8348 4.34434ZM19.3248 12.1844C19.2321 11.8331 19.0762 11.5042 18.8657 11.2157C18.5958 10.8571 18.2511 10.6168 17.8117 10.4514C18.2253 10.3101 18.5917 10.0455 18.8671 9.6893C19.078 9.39941 19.234 9.06892 19.3262 8.71613C19.4186 9.06875 19.5742 9.39918 19.7847 9.6893C20.0595 10.0462 20.4257 10.3113 20.8393 10.4529C20.3992 10.6198 20.0545 10.8586 19.7847 11.2172C19.5742 11.5058 19.4181 11.8347 19.3248 12.1859V12.1844ZM6.1859 6.29293C7.17295 6.29195 8.13699 6.60881 8.95029 7.20153C9.76359 7.79424 10.3878 8.63483 10.7401 9.61193C11.0925 10.589 11.1564 11.6565 10.9234 12.673C10.6903 13.6894 10.1714 14.6069 9.4353 15.3038C7.91415 14.5163 6.71827 13.1651 6.07412 11.506C5.42997 9.84689 5.38228 7.99505 5.94007 6.30116C6.02201 6.29667 6.10254 6.29443 6.18307 6.29443L6.1859 6.29293ZM6.1859 16.6235C5.04286 16.6228 3.93645 16.1963 3.06004 15.4187C2.18363 14.6411 1.59299 13.5618 1.39134 12.3694C1.1897 11.1771 1.38989 9.94763 1.95692 8.89586C2.52395 7.8441 3.42174 7.03698 4.49338 6.61557C4.07085 8.41671 4.20188 10.3137 4.86739 12.0305C5.53291 13.7472 6.69815 15.194 8.19347 16.1602C7.56224 16.4647 6.87664 16.622 6.18307 16.6213L6.1859 16.6235ZM12.9192 16.0419H12.8995C12.7582 16.0509 12.6169 16.0554 12.4792 16.0554C11.9058 16.0554 11.3347 15.98 10.7789 15.8308C11.5559 14.9151 12.0734 13.7857 12.2717 12.5723C12.47 11.3589 12.3412 10.1109 11.9 8.97162C11.4588 7.83237 10.7232 6.8482 9.77773 6.13226C8.83226 5.41632 7.71532 4.99769 6.55534 4.9245C7.1939 3.80606 8.10286 2.88875 9.18817 2.26748C10.2735 1.64621 11.4957 1.34354 12.7285 1.39079C13.9612 1.43804 15.1596 1.8335 16.1997 2.53624C17.2399 3.23898 18.0839 4.22348 18.6446 5.38788L18.8494 5.81233H18.8572C18.7618 7.62842 18.622 8.61806 18.2214 9.14732C17.763 9.75668 16.844 9.88169 14.8555 10.0202V10.8886C16.844 11.0278 17.763 11.1521 18.2214 11.7614C18.6799 12.3708 18.7978 13.6127 18.8989 16.0434L12.9192 16.0419ZM20.1873 16.0419H20.1626C20.0383 16.0509 19.9344 16.0546 19.8377 16.0546H19.7508C19.8518 13.6149 19.9627 12.376 20.4282 11.7599C20.8937 11.1438 21.8064 11.0263 23.7942 10.8871V10.0187C21.8064 9.8802 20.8867 9.75518 20.4282 9.14582C20.0234 8.60908 19.8864 7.59698 19.7924 5.72849H19.8398C21.0943 5.74087 22.2959 6.26538 23.1948 7.19289C24.0936 8.1204 24.6203 9.37946 24.6654 10.7081C24.7104 12.0367 24.2703 13.3326 23.4366 14.3261C22.6029 15.3196 21.4399 15.9341 20.1894 16.0419H20.1873Z" fill="white"/>
</svg>