<svg xmlns="http://www.w3.org/2000/svg" width="144" height="37" viewBox="0 0 144 37" fill="none">
  <rect x="117" width="27" height="36" rx="4.66667" fill="white"/>
  <path d="M125 3.5V4.16667C125 4.90305 125.597 5.5 126.333 5.5H134.667C135.403 5.5 136 4.90305 136 4.16667V3.5" stroke="#5A5B63" stroke-width="2" stroke-linecap="round"/>
  <path d="M136.803 28.5H124.386C124.203 28.5 124.019 28.4679 123.865 28.3676C122.259 27.3179 120.984 23.0093 126.65 21.5402C126.753 21.5134 126.863 21.5 126.97 21.5H133.801C133.887 21.5 133.977 21.5088 134.061 21.5262C139.917 22.7407 138.762 27.175 137.387 28.322C137.226 28.4567 137.013 28.5 136.803 28.5Z" fill="#339660"/>
  <ellipse cx="130.491" cy="16.5" rx="3.92897" ry="4" fill="#339660"/>
</svg>