<svg xmlns="http://www.w3.org/2000/svg" viewBox="0 0 368.14 240.48">
  <defs>
    <style>
      .cls-1 {
        fill: #040000;
      }
    </style>
  </defs>
  <g id="레이어_2" data-name="레이어 2">
    <g id="레이어_1-2" data-name="레이어 1"><path class="cls-1" d="M280.7,58c-1.11,0-2.24,0-3.37.07a116.47,116.47,0,0,0-206.28,9,87.44,87.44,0,1,0,65,158.53,115.94,115.94,0,0,0,40.44,7.25c2.18,0,4.45-.07,6.78-.2h91.74c2.11.13,3.91.2,5.65.2s3.54-.07,5.65-.2l9.19,0v-1.06A87.44,87.44,0,0,0,280.7,58Zm-7.22,104.73a37.78,37.78,0,0,0-6.5-12.94c-3.82-4.79-8.7-8-14.92-10.21A32,32,0,0,0,267,129.4a37.83,37.83,0,0,0,6.5-13,38,38,0,0,0,6.49,13,31.94,31.94,0,0,0,14.93,10.2c-6.23,2.23-11.11,5.42-14.93,10.21A38,38,0,0,0,273.48,162.75Zm-186-78.7a68.95,68.95,0,0,1,46,120.37A97.93,97.93,0,0,1,84,84.14C85.16,84.08,86.3,84.05,87.44,84.05Zm0,138A69,69,0,0,1,63.52,88.34a116.43,116.43,0,0,0,52.38,127.5A68.53,68.53,0,0,1,87.44,222Zm95.32-7.77-.28,0c-2,.12-4,.18-5.95.18a98,98,0,0,1-24.07-3A87.4,87.4,0,0,0,92.71,65.75a98,98,0,0,1,171.14,6.19l2.9,5.67.11,0c-1.35,24.26-3.33,37.48-9,44.55-6.49,8.14-19.5,9.81-47.65,11.66v11.6c28.15,1.86,41.16,3.52,47.65,11.66s8.16,24.73,9.59,57.2Zm102.89,0-.35,0c-1.76.12-3.23.17-4.6.17h-1.23c1.43-32.59,3-49.14,9.59-57.37s19.51-9.8,47.65-11.66V133.8c-28.14-1.85-41.16-3.52-47.65-11.66-5.73-7.17-7.67-20.69-9-45.65h.67a69,69,0,0,1,4.95,137.77Z"/></g>
  </g>
</svg>
