<svg width="36" height="48" viewBox="0 0 36 48" fill="none" xmlns="http://www.w3.org/2000/svg">
<g id="Group 1707478045">
<rect id="Rectangle 3424" width="36" height="48" rx="4.66667" fill="white"/>
<path id="Vector 8" d="M10.6665 4.6665V5.99984C10.6665 6.73622 11.2635 7.33317 11.9998 7.33317H23.9998C24.7362 7.33317 25.3332 6.73622 25.3332 5.99984V4.6665" stroke="#5A5B63" stroke-width="2" stroke-linecap="round"/>
<g id="Group 1707478041">
<path id="Vector 9" d="M26.5107 37.9998H9.75582C9.57235 37.9998 9.38877 37.9667 9.23153 37.8721C7.04939 36.5602 5.21231 30.6757 12.9191 28.7065C13.0225 28.6801 13.133 28.6665 13.2396 28.6665H22.4449C22.5309 28.6665 22.6205 28.6754 22.7047 28.6926C30.682 30.3237 28.9701 36.4132 27.0988 37.8298C26.9311 37.9568 26.721 37.9998 26.5107 37.9998Z" fill="#339660"/>
<ellipse id="Ellipse 1264" cx="17.9901" cy="21.9998" rx="5.23863" ry="5.33333" fill="#339660"/>
</g>
</g>
</svg>
