<svg xmlns="http://www.w3.org/2000/svg" width="66" height="49" viewBox="0 0 66 49" fill="none">
  <path d="M8 37V17H58V37C56.6726 40.4074 50 49 33 49C17 49 9.9174 40.8519 8 37Z" fill="#5A5B63"/>
  <path d="M50.1579 24.2595V19.4129C50.1579 18.7953 49.4806 18.4169 48.9546 18.7406C48.7212 18.8843 48.5789 19.1388 48.5789 19.4129V24.2247C48.5789 24.8578 47.8953 25.3197 47.4408 25.7604C47.186 26.0073 47 26.4168 47 27.0704V40C47 40.5523 47.4477 41 48 41H51C51.5523 41 52 40.5523 52 40V27.0704C52 26.2942 51.694 25.8624 51.3111 25.6381C50.7748 25.3238 50.1579 24.8811 50.1579 24.2595Z" fill="#FFC835"/>
  <path d="M3.49897 13.434C11.3832 9.41217 30.0791 0.0315698 33 0.000112682C35.9368 -0.0315154 54.8205 9.48785 62.6287 13.4908C64.0623 14.2257 64.0626 16.2498 62.6326 16.9918C55.0838 20.9091 37.2114 30 33.9296 30C30.6396 30 11.5369 20.8641 3.52971 16.9629C2.05812 16.2459 2.04077 14.1779 3.49897 13.434Z" fill="#868A93"/>
  <ellipse cx="32.9998" cy="15" rx="4.25806" ry="3" fill="#5A5B63"/>
</svg>