<svg width="40" height="60" viewBox="0 0 40 60" fill="none" xmlns="http://www.w3.org/2000/svg">
  <g id="Group 1707478048">
    <rect id="Rectangle 3448" x="10" y="55.7144" width="4.28571" height="4.28571" rx="2.14286" fill="#5A5B62"/>
    <rect id="Rectangle 3449" x="25.7144" y="55.7144" width="4.28571" height="4.28571" rx="2.14286" fill="#5A5B62"/>
    <path id="Subtract" fill-rule="evenodd" clip-rule="evenodd" d="M15.0001 0C13.0277 0 11.4287 1.59898 11.4287 3.57143V8.57143C11.4287 10.5439 13.0277 12.1429 15.0001 12.1429H25.0001C26.9726 12.1429 28.5716 10.5439 28.5716 8.57143V3.57143C28.5716 1.59898 26.9726 0 25.0001 0H15.0001ZM16.4287 3.57143C15.6397 3.57143 15.0001 4.21102 15.0001 5V10C15.0001 10.789 15.6397 11.4286 16.4287 11.4286H23.5715C24.3605 11.4286 25.0001 10.789 25.0001 10V5C25.0001 4.21102 24.3605 3.57143 23.5715 3.57143H16.4287Z" fill="#5A5B62"/>
    <rect id="Rectangle 3445" y="7.14307" width="40" height="50" rx="8.57143" fill="#F8DB00"/>
    <rect id="Rectangle 3450" x="7.85693" y="12.8569" width="4.28571" height="38.5714" rx="2.14286" fill="#A79400" fill-opacity="0.3"/>
    <rect id="Rectangle 3451" x="17.8569" y="12.8569" width="4.28571" height="38.5714" rx="2.14286" fill="#A79400" fill-opacity="0.3"/>
    <rect id="Rectangle 3452" x="27.8569" y="12.8569" width="4.28571" height="38.5714" rx="2.14286" fill="#A79400" fill-opacity="0.3"/>
  </g>
</svg>
