<svg xmlns="http://www.w3.org/2000/svg" width="40" height="54" viewBox="0 0 40 54" fill="none">
  <rect x="10" y="50" width="4" height="4" rx="2" fill="#5F6268"/>
  <rect x="26" y="50" width="4" height="4" rx="2" fill="#5F6268"/>
  <path fill-rule="evenodd" clip-rule="evenodd" d="M14.5714 0C12.599 0 11 1.59898 11 3.57143V7.42857C11 9.40102 12.599 11 14.5714 11H16.4286C15.6396 11 15 10.3604 15 9.57143V5.42857C15 4.63959 15.6396 4 16.4286 4H23.5714C24.3604 4 25 4.63959 25 5.42857V9.57143C25 10.3604 24.3604 11 23.5714 11H24.4286C26.401 11 28 9.40102 28 7.42857V3.57143C28 1.59898 26.401 0 24.4286 0H14.5714Z" fill="#5F6268"/>
  <rect y="6" width="40" height="45" rx="8.57143" fill="#FFD2AD"/>
  <rect x="8" y="12" width="4" height="35" rx="2" fill="#FEA65E"/>
  <rect x="18" y="12" width="4" height="35" rx="2" fill="#FEA65E"/>
  <rect x="28" y="12" width="4" height="35" rx="2" fill="#FEA65E"/>
</svg>