<svg xmlns="http://www.w3.org/2000/svg" viewBox="0 0 18 18" fill="none">
  <path d="M9.00021 2.25C7.65755 2.25 6.36988 2.78337 5.42048 3.73277C4.47108 4.68217 3.93771 5.96984 3.93771 7.3125V10.0142L2.85264 12.7288C2.81854 12.8142 2.80588 12.9066 2.81576 12.998C2.82564 13.0894 2.85777 13.1769 2.90934 13.253C2.9609 13.3291 3.03033 13.3914 3.11154 13.4345C3.19276 13.4775 3.28329 13.5 3.37521 13.5H6.75021C6.75021 14.7471 7.75314 15.75 9.00021 15.75C10.2473 15.75 11.2502 14.7471 11.2502 13.5H14.6252C14.7171 13.5 14.8077 13.4775 14.8889 13.4345C14.9701 13.3914 15.0395 13.3291 15.0911 13.253C15.1426 13.1769 15.1748 13.0894 15.1847 12.998C15.1945 12.9066 15.1819 12.8142 15.1478 12.7288L14.0627 10.0142V7.3125C14.0627 5.96984 13.5293 4.68217 12.5799 3.73277C11.6305 2.78337 10.3429 2.25 9.00021 2.25ZM10.1252 13.5C10.1252 14.1255 9.62571 14.625 9.00021 14.625C8.37471 14.625 7.87521 14.1255 7.87521 13.5H10.1252ZM5.06271 7.3125C5.06271 6.26821 5.47755 5.26669 6.21597 4.52827C6.9544 3.78984 7.95592 3.375 9.00021 3.375C10.0445 3.375 11.046 3.78984 11.7844 4.52827C12.5229 5.26669 12.9377 6.26821 12.9377 7.3125V10.1222C12.9376 10.1937 12.9512 10.2645 12.9776 10.3309L13.7944 12.375H4.20602L5.02277 10.3309C5.04915 10.2647 5.0627 10.194 5.06271 10.1228V7.3125Z" fill="#726AF7" stroke="#726AF7" stroke-width="0.3"/>
</svg>