<svg xmlns="http://www.w3.org/2000/svg" viewBox="0 0 54 54" fill="none">
  <mask id="mask0_1679_13671" style="mask-type:alpha" maskUnits="userSpaceOnUse" x="0" y="0" width="54" height="54">
    <circle cx="27" cy="27" r="27" fill="#EFEEFF"/>
  </mask>
  <g mask="url(#mask0_1679_13671)">
    <path d="M26.9997 9.71997C29.7209 9.71997 32.3305 10.8024 34.2547 12.7291C36.1788 14.6558 37.2597 17.269 37.2597 19.9938C37.2597 22.7186 36.1788 25.3318 34.2547 27.2585C32.3305 29.1852 29.7209 30.2677 26.9997 30.2677C24.2786 30.2677 21.6689 29.1852 19.7448 27.2585C17.8207 25.3318 16.7397 22.7186 16.7397 19.9938C16.7397 17.269 17.8207 14.6558 19.7448 12.7291C21.6689 10.8024 24.2786 9.71997 26.9997 9.71997ZM26.9997 35.4046C38.337 35.4046 47.5197 40.0021 47.5197 45.6784V62.5569C31.4926 68.4277 22.5069 68.4277 6.47974 62.5569V45.6784C6.47974 40.0021 15.6624 35.4046 26.9997 35.4046Z" fill="#DDDDDF"/>
  </g>
</svg>