<svg xmlns="http://www.w3.org/2000/svg" width="40" height="40" viewBox="0 0 40 40" fill="none">
  <path d="M21.3338 30C22.0236 30 22.5056 29.437 22.8377 28.5737L28.7584 13.0964C28.9151 12.6964 29 12.3365 29 12.0362C29 11.3978 28.6006 11 27.9623 11C27.6604 11 27.3005 11.0849 26.9022 11.24L11.3599 17.1923C10.585 17.4876 10 17.968 10 18.6652C10 19.5217 10.638 19.8436 11.5206 20.1071L17.9942 22.0068L19.8757 28.4098C20.1466 29.3309 20.47 30 21.3338 30ZM18.5046 20.3791L12.8675 18.6548C12.7385 18.6164 12.6968 18.5789 12.6968 18.5177C12.6968 18.4581 12.7311 18.4132 12.8496 18.3658L23.6399 14.25C24.408 13.9565 25.1508 13.5877 25.9507 13.2228C25.3082 13.7462 24.5221 14.3724 23.9784 14.9129L18.5046 20.3791ZM21.4903 27.3177C21.4218 27.3177 21.3859 27.2597 21.3458 27.1322L19.6201 21.4962L25.0874 16.022C25.6108 15.4937 26.2735 14.6783 26.7848 14.0259C26.4182 14.8406 26.0422 15.5834 25.7487 16.3589L21.6332 27.1486C21.5874 27.267 21.5499 27.3177 21.4903 27.3177Z" fill="white"/>
</svg>