<svg xmlns="http://www.w3.org/2000/svg" viewBox="0 0 21 21" fill="none">
  <path d="M4.00317 11.492V13.9112C4.00317 14.5397 4.34754 15.1252 4.89854 15.4265L9.20322 17.7768C9.71978 18.0609 10.3397 18.0609 10.8562 17.7768L15.1609 15.4265C15.7119 15.1252 16.0563 14.5397 16.0563 13.9112V11.492L10.8562 14.3331C10.3397 14.6172 9.71978 14.6172 9.20322 14.3331L4.00317 11.492ZM9.20322 3.17537L1.94553 7.13568C1.35149 7.46283 1.35149 8.32377 1.94553 8.65092L9.20322 12.6112C9.71978 12.8953 10.3397 12.8953 10.8562 12.6112L17.7781 8.83172V13.9198C17.7781 14.3934 18.1656 14.7808 18.6391 14.7808C19.1126 14.7808 19.5 14.3934 19.5 13.9198V8.40125C19.5 8.08271 19.3278 7.7986 19.0523 7.64363L10.8562 3.17537C10.6018 3.03971 10.318 2.96875 10.0297 2.96875C9.74143 2.96875 9.45758 3.03971 9.20322 3.17537Z" fill="#E8EDFD"/>
</svg>