<svg xmlns="http://www.w3.org/2000/svg" viewBox="0 0 21 20" fill="none">
  <path d="M14.0001 4C12.7759 4 11.6895 4.48322 10.9533 5.31378C10.2172 4.48322 9.13075 4 7.90654 4C6.8403 4.00129 5.81809 4.42543 5.06414 5.17938C4.31019 5.93333 3.88606 6.95553 3.88477 8.02178C3.88477 12.4299 10.3324 15.952 10.6066 16.1001C10.7132 16.1575 10.8323 16.1875 10.9533 16.1875C11.0744 16.1875 11.1935 16.1575 11.3001 16.1001C11.5743 15.952 18.0219 12.4299 18.0219 8.02178C18.0206 6.95553 17.5965 5.93333 16.8426 5.17938C16.0886 4.42543 15.0664 4.00129 14.0001 4ZM13.6656 12.6749C12.8169 13.395 11.9097 14.0432 10.9533 14.6126C9.99699 14.0432 9.08976 13.395 8.24108 12.6749C6.9206 11.5421 5.34723 9.81452 5.34723 8.02178C5.34723 7.34301 5.61687 6.69204 6.09684 6.21207C6.5768 5.73211 7.22777 5.46247 7.90654 5.46247C8.99121 5.46247 9.89915 6.03526 10.2763 6.95784C10.3312 7.09233 10.425 7.20742 10.5455 7.28843C10.6661 7.36945 10.8081 7.41271 10.9533 7.41271C11.0986 7.41271 11.2406 7.36945 11.3612 7.28843C11.4817 7.20742 11.5754 7.09233 11.6303 6.95784C12.0075 6.03526 12.9155 5.46247 14.0001 5.46247C14.6789 5.46247 15.3299 5.73211 15.8099 6.21207C16.2898 6.69204 16.5595 7.34301 16.5595 8.02178C16.5595 9.81452 14.9861 11.5421 13.6656 12.6749Z" fill="#FF474A"/>
</svg>