<svg xmlns="http://www.w3.org/2000/svg" viewBox="0 0 20 20" fill="none">
  <path d="M15.9091 16.3639C13.8973 14.3521 12.803 13.0306 12.803 13.0306M2.5 8.73764C2.5 9.5269 2.65546 10.3084 2.95749 11.0376C3.25953 11.7668 3.70223 12.4293 4.26032 12.9874C4.81841 13.5455 5.48096 13.9882 6.21014 14.2903C6.93931 14.5923 7.72084 14.7477 8.5101 14.7477C9.29936 14.7477 10.0809 14.5923 10.8101 14.2903C11.5392 13.9882 12.2018 13.5455 12.7599 12.9874C13.318 12.4293 13.7607 11.7668 14.0627 11.0376C14.3647 10.3084 14.5202 9.5269 14.5202 8.73764C14.5202 7.94838 14.3647 7.16685 14.0627 6.43767C13.7607 5.7085 13.318 5.04595 12.7599 4.48786C12.2018 3.92977 11.5392 3.48707 10.8101 3.18503C10.0809 2.88299 9.29936 2.72754 8.5101 2.72754C7.72084 2.72754 6.93931 2.88299 6.21014 3.18503C5.48096 3.48707 4.81841 3.92977 4.26032 4.48786C3.70223 5.04595 3.25953 5.7085 2.95749 6.43767C2.65546 7.16685 2.5 7.94838 2.5 8.73764Z" stroke="#5C82F0" stroke-width="2" stroke-linecap="round" stroke-linejoin="round"/>
</svg>