<svg xmlns="http://www.w3.org/2000/svg" viewBox="0 0 51 50" fill="none">
  <path d="M25.6826 2.50098C29.5702 2.53258 33.3832 3.57079 36.75 5.51465C40.1436 7.47407 42.9674 10.2861 44.9404 13.6719C46.9133 17.0575 47.9674 20.8999 47.999 24.8184C48.0307 28.7369 47.0381 32.5956 45.1201 36.0127C43.2021 39.4298 40.425 42.2868 37.0635 44.3008C33.702 46.3147 29.8729 47.4158 25.9551 47.4951C22.0373 47.5744 18.1668 46.6292 14.7266 44.7529C11.2864 42.8766 8.39555 40.1345 6.34082 36.7979C4.28608 33.4611 3.13864 29.6451 3.01172 25.7285L3.01074 25.708V25.6865L3 25.0381V24.9609L3.01074 24.3135V24.292L3.01172 24.2705C3.13777 20.3848 4.26779 16.5979 6.29297 13.2793C8.31818 9.96065 11.1693 7.22399 14.5674 5.33496C17.9655 3.44594 21.7949 2.46938 25.6826 2.50098Z" stroke="url(#paint0_linear_2623_17160)" stroke-width="5"/>
  <path d="M25.0003 12.9998C24.4492 12.9998 23.9173 13.2022 23.5054 13.5684C23.0936 13.9346 22.8305 14.4392 22.766 14.9865L22.7502 15.2498V26.4998L22.7705 26.7945C22.8218 27.1849 22.9746 27.5549 23.2138 27.8678L23.4095 28.0928L30.1596 34.8427L30.3711 35.0273C30.7657 35.3334 31.2509 35.4996 31.7504 35.4996C32.2498 35.4996 32.735 35.3334 33.1296 35.0273L33.3411 34.8405L33.5279 34.629C33.834 34.2344 34.0002 33.7492 34.0002 33.2498C34.0002 32.7503 33.834 32.2651 33.5279 31.8705L33.3411 31.659L27.2503 25.566V15.2498L27.2346 14.9865C27.1701 14.4392 26.907 13.9346 26.4951 13.5684C26.0833 13.2022 25.5514 12.9998 25.0003 12.9998Z" fill="url(#paint1_linear_2623_17160)"/>
  <defs>
    <linearGradient id="paint0_linear_2623_17160" x1="14.7192" y1="20.9965" x2="54.7197" y2="20.9965" gradientUnits="userSpaceOnUse">
      <stop stop-color="#388CE8"/>
      <stop offset="1" stop-color="#5950F6"/>
    </linearGradient>
    <linearGradient id="paint1_linear_2623_17160" x1="-1.4375" y1="26.5" x2="50.3125" y2="26.5" gradientUnits="userSpaceOnUse">
      <stop stop-color="#388CE8"/>
      <stop offset="1" stop-color="#5950F6"/>
    </linearGradient>
  </defs>
</svg>