<svg xmlns="http://www.w3.org/2000/svg" viewBox="0 0 50 51" fill="none">
  <path d="M17.5 33.8334C19.625 32.2584 22.2125 31.3334 25 31.3334C27.7875 31.3334 30.375 32.2584 32.5 33.8334" stroke="url(#paint0_linear_2093_14808)" stroke-width="3.5" stroke-linecap="round" stroke-linejoin="round"/>
  <path d="M47.5 25.5C47.5 28.4547 46.918 31.3806 45.7873 34.1104C44.6566 36.8402 42.9992 39.3206 40.9099 41.4099C38.8206 43.4992 36.3402 45.1566 33.6104 46.2873C30.8806 47.418 27.9547 48 25 48C22.0453 48 19.1194 47.418 16.3896 46.2873C13.6598 45.1566 11.1794 43.4992 9.0901 41.4099C7.00078 39.3206 5.34344 36.8402 4.21271 34.1104C3.08198 31.3806 2.5 28.4547 2.5 25.5C2.5 19.5326 4.87053 13.8097 9.0901 9.5901C13.3097 5.37053 19.0326 3 25 3C30.9674 3 36.6903 5.37053 40.9099 9.5901C45.1295 13.8097 47.5 19.5326 47.5 25.5Z" stroke="url(#paint1_linear_2093_14808)" stroke-width="5" stroke-linecap="round" stroke-linejoin="round"/>
  <circle cx="17.9167" cy="21.3334" r="2.5" fill="url(#paint2_linear_2093_14808)"/>
  <circle cx="32.9167" cy="21.3334" r="2.5" fill="url(#paint3_linear_2093_14808)"/>
  <defs>
    <linearGradient id="paint0_linear_2093_14808" x1="34.1667" y1="34.6667" x2="15.8333" y2="34.6667" gradientUnits="userSpaceOnUse">
      <stop stop-color="#5950F6"/>
      <stop offset="1" stop-color="#388CE8"/>
    </linearGradient>
    <linearGradient id="paint1_linear_2093_14808" x1="49.1667" y1="28" x2="0.833334" y2="27.1667" gradientUnits="userSpaceOnUse">
      <stop stop-color="#5950F6"/>
      <stop offset="1" stop-color="#388CE8"/>
    </linearGradient>
    <linearGradient id="paint2_linear_2093_14808" x1="62.9168" y1="21.3334" x2="-7.08325" y2="22.5834" gradientUnits="userSpaceOnUse">
      <stop stop-color="#5950F6"/>
      <stop offset="1" stop-color="#388CE8"/>
    </linearGradient>
    <linearGradient id="paint3_linear_2093_14808" x1="57.9167" y1="22.5834" x2="-12.0833" y2="22.5834" gradientUnits="userSpaceOnUse">
      <stop stop-color="#5950F6"/>
      <stop offset="1" stop-color="#388CE8"/>
    </linearGradient>
  </defs>
</svg>