<svg xmlns="http://www.w3.org/2000/svg" width="12" height="12" viewBox="0 0 12 12" fill="none">
  <path d="M2.64716 1.05025C2.45963 0.862716 2.20527 0.75736 1.94006 0.75736C1.67484 0.75736 1.42049 0.862716 1.23295 1.05025C1.04541 1.23779 0.940057 1.49214 0.940058 1.75736C0.940058 2.02258 1.04541 2.27693 1.23295 2.46447L4.76848 6L1.23295 9.53553C1.04541 9.72307 0.940058 9.97742 0.940058 10.2426C0.940057 10.5079 1.04541 10.7622 1.23295 10.9497C1.42049 11.1373 1.67484 11.2426 1.94006 11.2426C2.20527 11.2426 2.45963 11.1373 2.64716 10.9497L6.1827 7.41421L9.71823 10.9497C9.90577 11.1373 10.1601 11.2426 10.4253 11.2426C10.6906 11.2426 10.9449 11.1373 11.1324 10.9497C11.32 10.7622 11.4253 10.5079 11.4253 10.2426C11.4253 9.97742 11.32 9.72307 11.1324 9.53553L7.59691 6L11.1324 2.46447C11.32 2.27693 11.4253 2.02258 11.4253 1.75736C11.4253 1.49214 11.32 1.23779 11.1324 1.05025C10.9449 0.862716 10.6906 0.757359 10.4253 0.757359C10.1601 0.757359 9.90577 0.862716 9.71823 1.05025L6.1827 4.58579L2.64716 1.05025Z" fill="white"/>
</svg>