<svg xmlns="http://www.w3.org/2000/svg" width="13" height="14" viewBox="0 0 13 14" fill="none">
  <path d="M6.49996 5.375C6.06898 5.375 5.65566 5.5462 5.35091 5.85095C5.04616 6.1557 4.87496 6.56902 4.87496 7C4.87496 7.43098 5.04616 7.8443 5.35091 8.14905C5.65566 8.4538 6.06898 8.625 6.49996 8.625C6.93094 8.625 7.34426 8.4538 7.64901 8.14905C7.95375 7.8443 8.12496 7.43098 8.12496 7C8.12496 6.56902 7.95375 6.1557 7.64901 5.85095C7.34426 5.5462 6.93094 5.375 6.49996 5.375ZM6.49996 9.70833C5.78166 9.70833 5.09279 9.42299 4.58488 8.91508C4.07697 8.40717 3.79163 7.71829 3.79163 7C3.79163 6.28171 4.07697 5.59283 4.58488 5.08492C5.09279 4.57701 5.78166 4.29167 6.49996 4.29167C7.21825 4.29167 7.90713 4.57701 8.41504 5.08492C8.92295 5.59283 9.20829 6.28171 9.20829 7C9.20829 7.71829 8.92295 8.40717 8.41504 8.91508C7.90713 9.42299 7.21825 9.70833 6.49996 9.70833ZM6.49996 2.9375C3.79163 2.9375 1.47871 4.62208 0.541626 7C1.47871 9.37792 3.79163 11.0625 6.49996 11.0625C9.20829 11.0625 11.5212 9.37792 12.4583 7C11.5212 4.62208 9.20829 2.9375 6.49996 2.9375Z" fill="#1A1F27"/>
</svg>