<svg width="335" height="44" viewBox="0 0 335 44" fill="none" xmlns="http://www.w3.org/2000/svg">
<rect width="335" height="44" rx="8" fill="#1A1F27"/>
<path d="M111.209 28.9C110.392 29.6917 109.5 29.5667 108.642 29.1917C107.734 28.8083 106.9 28.7917 105.942 29.1917C104.742 29.7083 104.109 29.5583 103.392 28.9C99.3253 24.7083 99.9253 18.325 104.542 18.0917C105.667 18.15 106.45 18.7083 107.109 18.7583C108.092 18.5583 109.034 17.9833 110.084 18.0583C111.342 18.1583 112.292 18.6583 112.917 19.5583C110.317 21.1167 110.934 24.5417 113.317 25.5C112.842 26.75 112.225 27.9917 111.2 28.9083L111.209 28.9ZM107.025 18.0417C106.9 16.1833 108.409 14.65 110.142 14.5C110.384 16.65 108.192 18.25 107.025 18.0417Z" fill="white"/>
<path d="M124.125 28H122.297L126.359 16.6875H128.344L132.422 28H130.594L129.562 25.0156H125.156L124.125 28ZM125.656 23.5781H129.062L127.391 18.75H127.312L125.656 23.5781ZM133.719 31.1875V19.5156H135.344V20.8906H135.484C135.781 20.3594 136.359 19.4062 137.922 19.4062C139.969 19.4062 141.484 21.0156 141.484 23.7812C141.484 26.5156 140 28.1719 137.938 28.1719C136.391 28.1719 135.781 27.2344 135.484 26.6719H135.391V31.1875H133.719ZM135.359 23.75C135.359 25.5312 136.141 26.75 137.562 26.75C139.031 26.75 139.797 25.4531 139.797 23.75C139.797 22.0781 139.047 20.8281 137.562 20.8281C136.125 20.8281 135.359 21.9844 135.359 23.75ZM143.141 31.1875V19.5156H144.766V20.8906H144.906C145.203 20.3594 145.781 19.4062 147.344 19.4062C149.391 19.4062 150.906 21.0156 150.906 23.7812C150.906 26.5156 149.422 28.1719 147.359 28.1719C145.812 28.1719 145.203 27.2344 144.906 26.6719H144.812V31.1875H143.141ZM144.781 23.75C144.781 25.5312 145.562 26.75 146.984 26.75C148.453 26.75 149.219 25.4531 149.219 23.75C149.219 22.0781 148.469 20.8281 146.984 20.8281C145.547 20.8281 144.781 21.9844 144.781 23.75ZM154.234 16.6875V28H152.562V16.6875H154.234ZM159.922 28.1719C157.422 28.1719 155.891 26.4531 155.891 23.8125C155.891 21.2031 157.453 19.4062 159.812 19.4062C161.75 19.4062 163.578 20.6094 163.578 23.6719V24.2656H157.547C157.594 25.875 158.539 26.7969 159.938 26.7969C160.891 26.7969 161.5 26.3906 161.781 25.875H163.469C163.094 27.25 161.781 28.1719 159.922 28.1719ZM157.562 23.0156H161.938C161.938 21.7188 161.109 20.7812 159.828 20.7812C158.492 20.7812 157.625 21.8125 157.562 23.0156ZM177.547 26.4062V27.6562H164.734V26.4062H170.375V23.9531H166.297V19.5H174.516V17.5312H166.266V16.3125H175.984V20.6875H167.766V22.7344H176.312V23.9531H171.844V26.4062H177.547ZM187.609 18.8906C187.594 21.4531 189.141 24.0156 191.312 24.9844L190.422 26.1562C188.812 25.3906 187.539 23.8203 186.891 21.9062C186.234 23.9531 184.945 25.6484 183.266 26.4688L182.359 25.2188C184.562 24.2344 186.109 21.5625 186.109 18.8906V16.5H187.609V18.8906ZM194.062 15.3281V29.3594H192.578V15.3281H194.062ZM201.188 17.8438C201.188 19.625 202.422 21.3281 204.562 22.0469L203.812 23.2031C202.227 22.6562 201.062 21.5625 200.453 20.1875C199.844 21.7031 198.633 22.8906 196.984 23.4688L196.188 22.3125C198.375 21.5625 199.688 19.7656 199.703 17.8281V17.4531H196.625V16.25H204.203V17.4531H201.188V17.8438ZM207.297 15.3281V18.9219H209.328V20.1719H207.297V23.7656H205.812V15.3281H207.297ZM207.297 24.4531V29.3281H205.812V25.6562H198.047V24.4531H207.297ZM221.031 15.3281V21H223.281V22.2344H221.031V29.3281H219.562V15.3281H221.031ZM218.344 17.5156V18.7344H210.047V17.5156H213.5V15.5156H214.984V17.5156H218.344ZM214.25 19.7656C216.25 19.7656 217.719 21.1094 217.734 23.0156C217.719 24.9375 216.25 26.2656 214.25 26.2812C212.234 26.2656 210.766 24.9375 210.766 23.0156C210.766 21.1094 212.234 19.7656 214.25 19.7656ZM214.25 20.9844C213.062 20.9844 212.172 21.8125 212.188 23.0156C212.172 24.2344 213.062 25.0469 214.25 25.0312C215.438 25.0469 216.312 24.2344 216.312 23.0156C216.312 21.8125 215.438 20.9844 214.25 20.9844ZM235.594 15.3281V29.3281H234.094V15.3281H235.594ZM231.422 16.8281C231.422 20.9219 229.672 24.4844 224.875 26.7812L224.094 25.5781C227.82 23.8047 229.633 21.2812 229.922 18.0156H224.766V16.8281H231.422Z" fill="white"/>
</svg>
