<svg width="700" height="700" fill="none" xmlns="http://www.w3.org/2000/svg"><path fill="#fff" d="M0 0h700v700H0z"/><path d="M474.078 270.42c-1.423 0-2.872 0-4.321.09a149.359 149.359 0 0 0-264.529 11.542 112.143 112.143 0 0 0-45.214 19.6 112.137 112.137 0 0 0-37.632 133.104 112.125 112.125 0 0 0 71.096 64.732 112.124 112.124 0 0 0 95.105-14.141 148.688 148.688 0 0 0 51.859 9.297c2.796 0 5.707-.09 8.695-.257h117.645c2.706.167 5.014.257 7.245.257s4.54-.09 7.246-.257h11.785v-1.359a112.13 112.13 0 0 0 92.536-120.002A112.131 112.131 0 0 0 474.078 270.42Zm-9.258 134.304a48.448 48.448 0 0 0-8.336-16.594c-4.898-6.143-11.156-10.259-19.133-13.093a41.04 41.04 0 0 0 19.159-13.055 48.491 48.491 0 0 0 8.335-16.671 48.721 48.721 0 0 0 8.323 16.671 40.96 40.96 0 0 0 19.146 13.08c-7.989 2.86-14.247 6.951-19.146 13.093a48.735 48.735 0 0 0-8.348 16.594v-.025ZM226.298 303.801a88.418 88.418 0 0 1 58.989 154.359 125.581 125.581 0 0 1-63.452-154.218 85.113 85.113 0 0 1 4.411-.116l.052-.025Zm0 176.968a88.488 88.488 0 0 1-76.772-132.379 88.482 88.482 0 0 1 46.046-39.062 149.307 149.307 0 0 0 67.171 163.503 87.881 87.881 0 0 1-36.497 7.899l.052.039Zm122.236-9.964h-.359c-2.565.153-5.13.23-7.63.23a125.647 125.647 0 0 1-30.867-3.847 112.08 112.08 0 0 0-76.673-186.829 125.673 125.673 0 0 1 219.465 7.938l3.719 7.271h.141c-1.731 31.11-4.27 48.063-11.541 57.13-8.323 10.438-25.006 12.58-61.105 14.952v14.876c36.099 2.385 52.782 4.514 61.105 14.952 8.323 10.439 10.464 31.713 12.298 73.352l-108.553-.025Zm131.944 0h-.449a86.073 86.073 0 0 1-5.899.218h-1.578c1.834-41.793 3.848-63.016 12.298-73.57 8.451-10.554 25.02-12.568 61.106-14.953v-14.875c-36.086-2.373-52.783-4.514-61.106-14.953-7.348-9.195-9.835-26.532-11.541-58.54h.859a88.485 88.485 0 0 1 87.603 85.303 88.483 88.483 0 0 1-81.255 91.37h-.038Z" fill="url(#a)"/><defs><linearGradient id="a" x1="453.183" y1="248.419" x2="225.005" y2="451.929" gradientUnits="userSpaceOnUse"><stop offset=".061" stop-color="#5950F6"/><stop offset="1" stop-color="#2AA4E2"/></linearGradient></defs></svg>