<svg xmlns="http://www.w3.org/2000/svg" width="16" height="15" viewBox="0 0 16 15" fill="none">
  <path d="M14.4689 10.7092V5.97565L8.30622 9.48567C8.07656 9.61938 7.83413 9.68624 7.57895 9.68624C7.32377 9.68624 7.08134 9.61938 6.85168 9.48567L0.382782 5.79513C0.242431 5.7149 0.14342 5.61462 0.0857483 5.49427C0.0280769 5.37393 -0.000503651 5.24021 6.71535e-06 5.09313C0.000517082 4.94604 0.0293529 4.81233 0.0865139 4.69198C0.143675 4.57164 0.242431 4.47135 0.382782 4.39112L6.85168 0.700585C6.96651 0.633728 7.08466 0.583451 7.20613 0.549754C7.32759 0.516058 7.45187 0.499478 7.57895 0.500013C7.70603 0.500547 7.83056 0.517395 7.95254 0.550557C8.07451 0.583718 8.19241 0.633728 8.30622 0.700585L15.5981 4.8725C15.7257 4.93936 15.8247 5.03643 15.8951 5.16373C15.9655 5.29103 16.0005 5.42795 16 5.5745V10.7092C16 10.9365 15.9265 11.1272 15.7795 11.2812C15.6325 11.4352 15.4508 11.512 15.2344 11.5115C15.018 11.5109 14.8364 11.4339 14.6894 11.2804C14.5424 11.1269 14.4689 10.9365 14.4689 10.7092ZM6.85168 14.2994L3.02393 12.1332C2.76874 11.9861 2.57098 11.7856 2.43063 11.5315C2.29028 11.2775 2.2201 11.0033 2.2201 10.7092V7.66046L6.85168 10.288C7.08134 10.4217 7.32377 10.4885 7.57895 10.4885C7.83413 10.4885 8.07656 10.4217 8.30622 10.288L12.9378 7.66046V10.7092C12.9378 11.0033 12.8676 11.2775 12.7273 11.5315C12.5869 11.7856 12.3892 11.9861 12.134 12.1332L8.30622 14.2994C8.19139 14.3663 8.07349 14.4165 7.95254 14.4502C7.83158 14.4839 7.70705 14.5005 7.57895 14.5C7.45085 14.4995 7.32632 14.4829 7.20536 14.4502C7.0844 14.4176 6.96651 14.3673 6.85168 14.2994Z" fill="#DDDDDF"/>
</svg>