<svg width="147" height="124" viewBox="0 0 147 124" fill="none" xmlns="http://www.w3.org/2000/svg">
<path d="M23 106.432C22.9998 102.5 24.3306 98.6802 26.7794 95.5862C29.2282 92.4922 32.6532 90.3025 36.5061 89.3676C36.6655 83.1184 39.2803 77.178 43.7933 72.8129C48.3063 68.4477 54.3604 66.0031 60.6651 66C64.3202 65.9974 67.9281 66.8187 71.216 68.4018C74.5039 69.9849 77.3859 72.2885 79.644 75.1382C81.4816 72.7981 84.0469 71.1248 86.9417 70.378C89.8366 69.6311 92.8991 69.8526 95.654 71.0079C98.4089 72.1633 100.702 74.1879 102.178 76.7677C103.654 79.3474 104.23 82.338 103.816 85.2753C106.651 84.7668 109.565 84.8817 112.35 85.6121C115.136 86.3424 117.726 87.6704 119.937 89.5021C122.149 91.3338 123.927 93.6245 125.148 96.2126C126.368 98.8006 127 101.623 127 104.48C126.998 109.654 124.925 114.616 121.236 118.276C117.548 121.936 112.544 123.995 107.326 124H40.6789C35.9872 123.99 31.4912 122.134 28.1779 118.841C24.8647 115.547 22.9983 111.084 23 106.432Z" fill="#388CE8"/>
<circle cx="5" cy="119" r="5" fill="#F0F0F0"/>
<ellipse cx="34" cy="56.5" rx="3" ry="2.5" fill="#F0F0F0"/>
<ellipse cx="130" cy="78.5" rx="3" ry="2.5" fill="#C4DDFF"/>
<path d="M13.8053 89.5615C13.8701 89.7283 13.8813 89.9112 13.8373 90.0846C13.7934 90.2581 13.6966 90.4135 13.5602 90.5293L10.773 92.932L10.8243 96.6117C10.8256 96.7898 10.7724 96.964 10.6718 97.111C10.5712 97.2579 10.428 97.3705 10.2616 97.4336C10.0951 97.4968 9.91328 97.5074 9.74054 97.4642C9.56781 97.421 9.41243 97.3259 9.29529 97.1918L6.89307 94.4032L3.21368 94.454C3.03563 94.4553 2.86145 94.402 2.71455 94.3013C2.56764 94.2007 2.45504 94.0575 2.39187 93.8909C2.32871 93.7244 2.318 93.5426 2.36119 93.3698C2.40439 93.197 2.49941 93.0416 2.6335 92.9245L5.42096 90.5223L5.36939 86.842C5.3681 86.664 5.42134 86.4897 5.52194 86.3428C5.62254 86.1959 5.76569 86.0833 5.93216 86.0202C6.09863 85.957 6.28045 85.9463 6.45318 85.9896C6.62592 86.0328 6.78129 86.1279 6.89844 86.262L9.30117 89.0504L12.9801 88.9998C13.1589 88.9961 13.3345 89.0481 13.4824 89.1488C13.6303 89.2495 13.7431 89.3938 13.8053 89.5615Z" fill="#C4DDFF"/>
<path d="M144.832 97.7689C144.897 97.9357 144.908 98.1186 144.864 98.292C144.82 98.4654 144.723 98.6209 144.587 98.7367L141.8 101.139L141.851 104.819C141.852 104.997 141.799 105.171 141.699 105.318C141.598 105.465 141.455 105.578 141.288 105.641C141.122 105.704 140.94 105.715 140.767 105.672C140.595 105.628 140.439 105.533 140.322 105.399L137.92 102.611L134.241 102.661C134.062 102.663 133.888 102.609 133.741 102.509C133.594 102.408 133.482 102.265 133.419 102.098C133.356 101.932 133.345 101.75 133.388 101.577C133.431 101.404 133.526 101.249 133.66 101.132L136.448 98.7297L136.396 95.0494C136.395 94.8714 136.448 94.6971 136.549 94.5502C136.649 94.4033 136.793 94.2907 136.959 94.2276C137.125 94.1644 137.307 94.1537 137.48 94.197C137.653 94.2402 137.808 94.3353 137.925 94.4694L140.328 97.2578L144.007 97.2072C144.186 97.2035 144.361 97.2555 144.509 97.3562C144.657 97.4569 144.77 97.6012 144.832 97.7689Z" fill="#F0F0F0"/>
<path d="M79.5 0C67.626 0 58 7.4307 58 16.597C58 21.7752 61.0745 26.3987 65.8881 29.4418C65.5541 32.5531 65.5001 32.7008 64.4565 38C71.6014 34.1426 70.7298 34.4309 74.383 32.7008C76.0266 33.0114 77.7334 33.1939 79.5 33.1939C91.374 33.1939 101 25.7632 101 16.597C101 7.4307 91.374 0 79.5 0Z" fill="#C4DDFF"/>
<path d="M80 19C81.1046 19 82 17.8807 82 16.5C82 15.1193 81.1046 14 80 14C78.8954 14 78 15.1193 78 16.5C78 17.8807 78.8954 19 80 19Z" fill="#388CE8"/>
<path d="M89.5 19C90.8807 19 92 17.8807 92 16.5C92 15.1193 90.8807 14 89.5 14C88.1193 14 87 15.1193 87 16.5C87 17.8807 88.1193 19 89.5 19Z" fill="#388CE8"/>
<path d="M70.5 19C71.8807 19 73 17.8807 73 16.5C73 15.1193 71.8807 14 70.5 14C69.1193 14 68 15.1193 68 16.5C68 17.8807 69.1193 19 70.5 19Z" fill="#388CE8"/>
</svg>
