<svg xmlns="http://www.w3.org/2000/svg" width="20" height="20" viewBox="0 0 20 20" fill="none">
  <path d="M7.24894 17.9999C7.62362 17.9999 7.90217 17.8164 8.36852 17.4069L10.6727 15.3669H14.7472C16.7738 15.3669 17.909 14.2029 17.909 12.2051V6.98455C17.909 4.98677 16.7738 3.82275 14.7472 3.82275H6.16059C4.13521 3.82275 3 4.98125 3 6.98455V12.2051C3 14.2084 4.16307 15.3669 6.11818 15.3669H6.39525V17.0262C6.39525 17.6209 6.70746 17.9999 7.24894 17.9999ZM7.57582 16.5172V14.5954C7.57582 14.2004 7.40659 14.0481 7.02855 14.0481H6.19815C4.92561 14.0481 4.31883 13.4008 4.31883 12.1633V7.0209C4.31883 5.78337 4.92561 5.14159 6.19815 5.14159H14.7108C15.9779 5.14159 16.5902 5.78337 16.5902 7.0209V12.1633C16.5902 13.4008 15.9779 14.0481 14.7108 14.0481H10.6008C10.1924 14.0481 9.99781 14.1141 9.71295 14.402L7.57582 16.5172Z" fill="#595959"/>
  <path d="M7.20035 10.5963C7.75274 10.5963 8.19931 10.1473 8.19931 9.59609C8.19931 9.04373 7.75274 8.59473 7.20035 8.59473C6.64675 8.59473 6.19897 9.04373 6.19897 9.59609C6.19897 10.1473 6.64675 10.5963 7.20035 10.5963Z" fill="#595959"/>
  <path d="M10.4613 10.5963C11.0081 10.5963 11.4614 10.1473 11.4614 9.59609C11.4614 9.04373 11.0081 8.59473 10.4613 8.59473C9.90884 8.59473 9.45435 9.04373 9.45435 9.59609C9.45435 10.1473 9.90884 10.5963 10.4613 10.5963Z" fill="#595959"/>
  <path d="M13.7154 10.5963C14.2702 10.5963 14.7168 10.1473 14.7168 9.59609C14.7168 9.04373 14.2702 8.59473 13.7154 8.59473C13.1642 8.59473 12.7165 9.04373 12.7165 9.59609C12.7165 10.1473 13.1642 10.5963 13.7154 10.5963Z" fill="#595959"/>
</svg>