<svg xmlns="http://www.w3.org/2000/svg" width="41" height="33" viewBox="0 0 41 33" fill="none">
  <path d="M5 24.9167V11.5H38V24.9167C37.1239 27.1528 32.6265 31.8 21.646 32.5C11.3664 32.5 6.26549 27.4444 5 24.9167Z" fill="#76797D"/>
  <path d="M33.1579 16.636V12.818C33.1579 12.2215 32.5218 11.8404 31.9959 12.1219C31.7392 12.2593 31.5789 12.5268 31.5789 12.818V16.6018C31.5789 17.3197 30.7887 17.8253 30.3191 18.3683C30.1289 18.5881 30 18.9141 30 19.3873V30.3468C30 30.9837 30.5163 31.5 31.1532 31.5H33.8468C34.4837 31.5 35 30.9837 35 30.3468V19.3873C35 18.7961 34.7652 18.4347 34.4497 18.223C33.8631 17.8295 33.1579 17.3423 33.1579 16.636Z" fill="#FFC835"/>
  <path d="M1.96575 9.11639C6.73408 6.63379 18.6593 0.520282 20.5 0.500071C22.3497 0.479763 34.3822 6.67723 39.1033 9.14752C39.9189 9.57428 39.9225 10.7242 39.1091 11.1551C34.5444 13.5733 23.1459 19.5 21.0775 19.5C19.0046 19.5 6.82645 13.5477 1.98418 11.1395C1.1465 10.7229 1.13594 9.54842 1.96575 9.11639Z" fill="#AAACAF"/>
  <ellipse cx="20.5" cy="10.5" rx="2.5" ry="2" fill="#76797D"/>
</svg>