<svg xmlns="http://www.w3.org/2000/svg" width="30" height="30" viewBox="0 0 30 30" fill="none">
  <path d="M29.6129 26.1453L22.5318 19.0651C22.2817 18.815 21.9426 18.6761 21.5868 18.6761H20.6806C22.215 16.714 23.1267 14.2461 23.1267 11.5614C23.1267 5.17483 17.951 0 11.5633 0C5.17571 0 0 5.17483 0 11.5614C0 17.9479 5.17571 23.1227 11.5633 23.1227C14.2485 23.1227 16.7168 22.2112 18.6793 20.6771V21.5831C18.6793 21.9388 18.8182 22.2779 19.0684 22.528L26.1495 29.6081C26.6721 30.1306 27.5171 30.1306 28.0341 29.6081L29.6074 28.0351C30.1299 27.5126 30.1299 26.6678 29.6129 26.1453ZM11.5633 18.6761C7.63292 18.6761 4.44744 15.4967 4.44744 11.5614C4.44744 7.63162 7.62736 4.44668 11.5633 4.44668C15.4938 4.44668 18.6793 7.62606 18.6793 11.5614C18.6793 15.4911 15.4993 18.6761 11.5633 18.6761Z" fill="#A2B7F6"/>
  <path d="M11.5633 18.6761C7.63292 18.6761 4.44744 15.4967 4.44744 11.5614C4.44744 7.63162 7.62736 4.44668 11.5633 4.44668C15.4938 4.44668 18.6793 7.62606 18.6793 11.5614C18.6793 15.4911 15.4993 18.6761 11.5633 18.6761Z" fill="white"/>
</svg>