<svg xmlns="http://www.w3.org/2000/svg" width="30" height="35" viewBox="0 0 30 35" fill="none">
  <rect width="24.8571" height="30.8571" rx="1.5" fill="#60A3ED"/>
  <path d="M5.79322 2.57129H16.0755L28.2857 2.78557C29.828 2.78557 29.9994 4.28557 29.9994 5.14271L29.7852 24.857L21.2166 33.4284H5.79322C4.42224 33.4284 4.2937 32.5712 4.29372 31.7141V5.14271C4.29372 3.08557 4.07952 2.57129 5.79322 2.57129Z" fill="white"/>
  <rect x="8.57227" y="9.42871" width="16.2857" height="2.57143" rx="1.28571" fill="#E8EDFD"/>
  <rect x="9.42773" y="14.5713" width="16.2857" height="2.57143" rx="1.28571" fill="#E8EDFD"/>
  <path d="M29.1473 25.711L21.4258 33.4324C21.1108 33.7474 20.5723 33.5243 20.5723 33.0789V25.3574C20.5723 25.0813 20.7961 24.8574 21.0723 24.8574H28.7937C29.2392 24.8574 29.4623 25.396 29.1473 25.711Z" fill="#9BC5F3"/>
</svg>