<svg xmlns="http://www.w3.org/2000/svg" viewBox="0 0 19 20" fill="none">
  <path fill-rule="evenodd" clip-rule="evenodd" d="M9.03375 0.294694C9.25447 0.118191 9.52517 0.0156635 9.80744 0.00165471C10.0897 -0.0123541 10.3692 0.0628667 10.6063 0.216648L10.7149 0.294694L14.5831 3.38963C14.7718 3.54047 14.9282 3.72788 15.0427 3.94061C15.1572 4.15334 15.2276 4.38701 15.2496 4.6276L15.2568 4.78998V15.1244H16.1539V7.49917C16.1539 7.39418 16.1906 7.29252 16.2579 7.21187C16.3251 7.13122 16.4184 7.0767 16.5217 7.0578L16.6024 7.05062H17.051C17.5036 7.05048 17.9396 7.22143 18.2715 7.52921C18.6034 7.837 18.8067 8.25885 18.8407 8.71023L18.8451 8.84479V15.9317C18.845 16.1747 18.7553 16.4092 18.5931 16.5901C18.4308 16.771 18.2076 16.8857 17.966 16.9123L17.8583 16.9185H1.89028C1.64712 16.9187 1.41247 16.829 1.23135 16.6668C1.05023 16.5045 0.935397 16.2811 0.908871 16.0394L0.903488 15.9317V8.84479C0.903345 8.39214 1.0743 7.95617 1.38208 7.62427C1.68986 7.29236 2.11172 7.08906 2.56309 7.05511L2.69765 7.05062H3.14619C3.25118 7.05059 3.35284 7.08738 3.43349 7.15459C3.51414 7.22179 3.56866 7.31516 3.58756 7.41843L3.59474 7.49917V15.1244H4.49182V4.78998C4.4918 4.54838 4.54058 4.30926 4.63523 4.08698C4.72988 3.86469 4.86845 3.66381 5.04263 3.49638L5.16553 3.38873L9.03375 0.294694ZM9.87431 6.15264C9.39847 6.15264 8.94212 6.34167 8.60565 6.67814C8.26918 7.01461 8.08015 7.47097 8.08015 7.94681C8.08015 8.42265 8.26918 8.879 8.60565 9.21548C8.94212 9.55195 9.39847 9.74097 9.87431 9.74097C10.3502 9.74097 10.8065 9.55195 11.143 9.21548C11.4795 8.879 11.6685 8.42265 11.6685 7.94681C11.6685 7.47097 11.4795 7.01461 11.143 6.67814C10.8065 6.34167 10.3502 6.15264 9.87431 6.15264Z" fill="#FF934B"/>
</svg>