<svg xmlns="http://www.w3.org/2000/svg" width="13" height="11" viewBox="0 0 13 11" fill="none">
  <path d="M11.3517 7.79226V4.41118L6.72967 6.91834C6.55742 7.01385 6.3756 7.0616 6.18421 7.0616C5.99282 7.0616 5.81101 7.01385 5.63876 6.91834L0.787086 4.28224C0.681823 4.22493 0.607565 4.1533 0.564311 4.06734C0.521058 3.98138 0.499622 3.88587 0.500005 3.78081C0.500388 3.67574 0.522015 3.58023 0.564885 3.49427C0.607756 3.40831 0.681823 3.33668 0.787086 3.27937L5.63876 0.643275C5.72488 0.59552 5.81349 0.559608 5.90459 0.535539C5.99569 0.51147 6.0889 0.499627 6.18421 0.500009C6.27952 0.500391 6.37292 0.512425 6.4644 0.536112C6.55589 0.559799 6.64431 0.59552 6.72967 0.643275L12.1986 3.62321C12.2943 3.67097 12.3685 3.74031 12.4213 3.83124C12.4742 3.92216 12.5004 4.01996 12.5 4.12464V7.79226C12.5 7.95463 12.4449 8.09083 12.3346 8.20085C12.2244 8.31088 12.0881 8.36571 11.9258 8.36532C11.7635 8.36494 11.6273 8.30993 11.517 8.20028C11.4068 8.09064 11.3517 7.95463 11.3517 7.79226ZM5.63876 10.3567L2.76795 8.80945C2.57656 8.70439 2.42823 8.56112 2.32297 8.37965C2.21771 8.19818 2.16508 8.00238 2.16508 7.79226V5.61461L5.63876 7.4914C5.81101 7.58691 5.99282 7.63467 6.18421 7.63467C6.3756 7.63467 6.55742 7.58691 6.72967 7.4914L10.2033 5.61461V7.79226C10.2033 8.00238 10.1507 8.19818 10.0455 8.37965C9.94019 8.56112 9.79186 8.70439 9.60048 8.80945L6.72967 10.3567C6.64354 10.4045 6.55512 10.4404 6.4644 10.4645C6.37368 10.4885 6.28029 10.5004 6.18421 10.5C6.08813 10.4996 5.99474 10.4878 5.90402 10.4645C5.8133 10.4412 5.72488 10.4052 5.63876 10.3567Z" fill="#726AF7"/>
</svg>