<svg xmlns="http://www.w3.org/2000/svg" width="18" height="18" viewBox="0 0 18 18" fill="none">
  <path fill-rule="evenodd" clip-rule="evenodd" d="M11.6998 6.29961C11.6998 7.01569 11.4153 7.70245 10.909 8.2088C10.4026 8.71515 9.71589 8.99961 8.9998 8.99961C8.28372 8.99961 7.59696 8.71515 7.09062 8.2088C6.58427 7.70245 6.2998 7.01569 6.2998 6.29961C6.2998 5.58352 6.58427 4.89677 7.09062 4.39042C7.59696 3.88407 8.28372 3.59961 8.9998 3.59961C9.71589 3.59961 10.4026 3.88407 10.909 4.39042C11.4153 4.89677 11.6998 5.58352 11.6998 6.29961ZM10.3498 6.29961C10.3498 6.65765 10.2076 7.00103 9.9544 7.2542C9.70122 7.50738 9.35785 7.64961 8.9998 7.64961C8.64176 7.64961 8.29838 7.50738 8.04521 7.2542C7.79204 7.00103 7.6498 6.65765 7.6498 6.29961C7.6498 5.94157 7.79204 5.59819 8.04521 5.34502C8.29838 5.09184 8.64176 4.94961 8.9998 4.94961C9.35785 4.94961 9.70122 5.09184 9.9544 5.34502C10.2076 5.59819 10.3498 5.94157 10.3498 6.29961Z" fill="#5950F6"/>
  <path fill-rule="evenodd" clip-rule="evenodd" d="M9 0C4.02955 0 0 4.02955 0 9C0 13.9705 4.02955 18 9 18C13.9705 18 18 13.9705 18 9C18 4.02955 13.9705 0 9 0ZM1.63636 9C1.63636 10.71 2.21973 12.2842 3.19745 13.5344C3.88427 12.6328 4.77013 11.9022 5.78589 11.3995C6.80165 10.8968 7.91983 10.6356 9.05318 10.6364C10.1719 10.6351 11.2762 10.8893 12.2818 11.3796C13.2874 11.8699 14.1678 12.5834 14.8557 13.4656C15.5646 12.5359 16.042 11.4506 16.2482 10.2998C16.4544 9.14888 16.3836 7.96544 16.0417 6.84735C15.6997 5.72926 15.0965 4.70868 14.2818 3.87003C13.4671 3.03139 12.4644 2.39879 11.3567 2.0246C10.249 1.6504 9.06807 1.54536 7.9117 1.71816C6.75534 1.89096 5.65674 2.33664 4.70681 3.01832C3.75688 3.69999 2.98294 4.59808 2.44901 5.63825C1.91508 6.67843 1.63651 7.83079 1.63636 9ZM9 16.3636C7.30956 16.3664 5.67012 15.7848 4.35927 14.7175C4.88684 13.962 5.58916 13.3451 6.40642 12.9195C7.22369 12.4938 8.13171 12.2719 9.05318 12.2727C9.96314 12.2719 10.8602 12.4883 11.6697 12.9038C12.4793 13.3193 13.178 13.922 13.7078 14.6618C12.3868 15.7639 10.7203 16.3663 9 16.3636Z" fill="#5950F6"/>
</svg>