<svg xmlns="http://www.w3.org/2000/svg" width="18" height="18" viewBox="0 0 18 18" fill="none">
  <path d="M6.63184 11.842L8.21078 13.263L11.3687 10.4209" stroke="#5950F6" stroke-linecap="round" stroke-linejoin="round"/>
  <path d="M13 1.8V2.3H13.5H15.3C15.8835 2.3 16.4431 2.53179 16.8556 2.94437C17.2682 3.35695 17.5 3.91652 17.5 4.5V15.3C17.5 15.8835 17.2682 16.4431 16.8556 16.8556C16.4431 17.2682 15.8835 17.5 15.3 17.5H2.7C2.11652 17.5 1.55695 17.2682 1.14437 16.8556C0.731785 16.4431 0.5 15.8835 0.5 15.3V4.5C0.5 3.91652 0.731785 3.35695 1.14437 2.94437C1.55695 2.53179 2.11652 2.3 2.7 2.3H4.5H5V1.8V0.9C5 0.793914 5.04214 0.692172 5.11716 0.617157C5.19217 0.542143 5.29391 0.5 5.4 0.5C5.50609 0.5 5.60783 0.542143 5.68284 0.617157C5.75786 0.692172 5.8 0.793913 5.8 0.9V1.8V2.3H6.3H11.7H12.2V1.8V0.9C12.2 0.793913 12.2421 0.692171 12.3172 0.617158C12.3922 0.542143 12.4939 0.5 12.6 0.5C12.7061 0.5 12.8078 0.542143 12.8828 0.617158C12.9579 0.692171 13 0.793912 13 0.9V1.8ZM1.8 8.5H1.3V9V15.3C1.3 15.6713 1.4475 16.0274 1.71005 16.29C1.9726 16.5525 2.3287 16.7 2.7 16.7H15.3C15.6713 16.7 16.0274 16.5525 16.29 16.29C16.5525 16.0274 16.7 15.6713 16.7 15.3V9V8.5H16.2H1.8ZM16.2 7.7H16.7V7.2V4.5C16.7 4.1287 16.5525 3.7726 16.29 3.51005C16.0274 3.2475 15.6713 3.1 15.3 3.1H13.5H13V3.6V4.5C13 4.60609 12.9579 4.70783 12.8828 4.78284C12.8078 4.85786 12.7061 4.9 12.6 4.9C12.4939 4.9 12.3922 4.85786 12.3172 4.78284C12.2421 4.70783 12.2 4.60609 12.2 4.5V3.6V3.1H11.7H6.3H5.8V3.6V4.5C5.8 4.60609 5.75786 4.70783 5.68284 4.78284C5.60783 4.85786 5.50609 4.9 5.4 4.9C5.29391 4.9 5.19217 4.85786 5.11716 4.78284C5.04214 4.70783 5 4.60609 5 4.5V3.6V3.1H4.5H2.7C2.3287 3.1 1.9726 3.2475 1.71005 3.51005C1.4475 3.7726 1.3 4.1287 1.3 4.5V7.2V7.7H1.8H16.2Z" stroke="#5950F6"/>
</svg>