<svg xmlns="http://www.w3.org/2000/svg" width="50" height="31" viewBox="0 0 50 31" fill="none">
  <path d="M38.1439 7.48192C37.9931 7.48192 37.8396 7.48192 37.6861 7.49094C36.2374 5.11671 34.131 3.16455 31.5956 1.84645C29.0602 0.528348 26.1928 -0.105315 23.3047 0.0142745C20.4166 0.133864 17.6182 1.00213 15.2134 2.5248C12.8086 4.04746 10.8893 6.16631 9.66402 8.65126C7.93327 8.96292 6.29723 9.63604 4.87441 10.6218C3.4516 11.6077 2.27763 12.8815 1.43757 14.351C0.597503 15.8206 0.112368 17.4491 0.0173077 19.1185C-0.0777529 20.788 0.219641 22.4566 0.887946 24.0035C1.55625 25.5504 2.57873 26.9369 3.88132 28.0625C5.18391 29.188 6.73399 30.0246 8.41928 30.5114C10.1046 30.9983 11.8829 31.1233 13.6253 30.8774C15.3678 30.6315 17.0308 30.0209 18.4939 29.0897C20.2519 29.7091 22.1123 30.0257 23.9875 30.0244C24.2836 30.0244 24.592 30.0154 24.9085 29.9986H37.3709C37.6576 30.0154 37.9021 30.0244 38.1385 30.0244C38.3748 30.0244 38.6194 30.0154 38.906 29.9986L39.5999 29.931L40.1544 29.8619C43.0824 29.3793 45.7133 27.8725 47.5281 25.6391C49.3428 23.4056 50.2095 20.6076 49.957 17.7974C49.7046 14.9872 48.3513 12.3689 46.1644 10.4592C43.9775 8.54949 41.1157 7.48719 38.1439 7.48192ZM37.1631 20.9842C36.9849 20.3793 36.685 19.8128 36.2801 19.3159C35.7612 18.6984 35.0983 18.2845 34.2533 17.9996C35.0487 17.7563 35.7533 17.3007 36.2828 16.6871C36.6885 16.1879 36.9884 15.6187 37.1658 15.0111C37.3434 15.6184 37.6427 16.1875 38.0475 16.6871C38.5759 17.3017 39.2802 17.7584 40.0756 18.0022C39.2293 18.2897 38.5664 18.7009 38.0475 19.3185C37.6427 19.8156 37.3424 20.382 37.1631 20.9868V20.9842ZM11.896 10.8378C13.7941 10.8361 15.6481 11.3818 17.2121 12.4026C18.7761 13.4234 19.9765 14.8711 20.6541 16.5539C21.3317 18.2367 21.4546 20.0751 21.0065 21.8257C20.5584 23.5763 19.5604 25.1563 18.1448 26.3565C15.2195 25.0004 12.9197 22.6733 11.681 19.8159C10.4422 16.9585 10.3505 13.7693 11.4232 10.852C11.5808 10.8443 11.7357 10.8404 11.8905 10.8404L11.896 10.8378ZM11.896 28.6294C9.69782 28.6281 7.57009 27.8936 5.88469 26.5544C4.19929 25.2152 3.06344 23.3564 2.67566 21.3029C2.28789 19.2495 2.67287 17.132 3.76331 15.3207C4.85374 13.5093 6.58027 12.1192 8.64111 11.3935C7.82855 14.4954 8.08053 17.7626 9.36037 20.7192C10.6402 23.6758 12.8811 26.1674 15.7567 27.8314C14.5428 28.3559 13.2243 28.6267 11.8905 28.6256L11.896 28.6294ZM24.8447 27.6277H24.8067C24.535 27.6431 24.2633 27.6509 23.9984 27.6509C22.8958 27.651 21.7974 27.521 20.7286 27.2641C22.2229 25.6872 23.218 23.7421 23.5994 21.6523C23.9808 19.5626 23.733 17.4132 22.8846 15.4511C22.0362 13.4891 20.6215 11.7941 18.8033 10.5611C16.9851 9.32811 14.8372 8.60713 12.6064 8.48108C13.8344 6.55489 15.5824 4.97508 17.6696 3.90511C19.7567 2.83514 22.1072 2.31388 24.4778 2.39525C26.8484 2.47663 29.1531 3.15769 31.1533 4.36796C33.1536 5.57824 34.7768 7.27377 35.8549 9.27913L36.2489 10.0101H36.2638C36.0804 13.1378 35.8114 14.8422 35.0412 15.7537C34.1596 16.8032 32.3922 17.0185 28.5682 17.257V18.7525C32.3922 18.9923 34.1596 19.2063 35.0412 20.2558C35.9228 21.3052 36.1497 23.4441 36.344 27.6303L24.8447 27.6277ZM38.8218 27.6277H38.7742C38.5351 27.6431 38.3354 27.6496 38.1493 27.6496H37.9822C38.1765 23.4479 38.3898 21.3142 39.285 20.2532C40.1802 19.1921 41.9353 18.9897 45.758 18.7499V17.2544C41.9353 17.0159 40.1666 16.8006 39.285 15.7511C38.5066 14.8268 38.2431 13.0837 38.0624 9.86573H38.1534C40.5659 9.88705 42.8768 10.7904 44.6053 12.3878C46.3338 13.9851 47.3468 16.1535 47.4334 18.4417C47.52 20.7299 46.6736 22.9617 45.0704 24.6727C43.4672 26.3837 41.2305 27.4421 38.8258 27.6277H38.8218Z" fill="url(#paint0_linear_4010_28421)"/>
  <defs>
    <linearGradient id="paint0_linear_4010_28421" x1="35.9304" y1="5.27" x2="12.8846" y2="26.9277" gradientUnits="userSpaceOnUse">
      <stop offset="0.060612" stop-color="#5950F6"/>
      <stop offset="1" stop-color="#2AA4E2"/>
    </linearGradient>
  </defs>
</svg>