<svg xmlns="http://www.w3.org/2000/svg" viewBox="0 0 20 21" fill="none">
  <path fill-rule="evenodd" clip-rule="evenodd" d="M9.21917 2.55696C9.42421 2.39299 9.67567 2.29775 9.93788 2.28474C10.2001 2.27173 10.4597 2.3416 10.68 2.48446L10.7808 2.55696L14.3742 5.43196C14.5495 5.57208 14.6947 5.74617 14.8011 5.94378C14.9075 6.14139 14.9729 6.35846 14.9933 6.58195L15 6.73279V8.83279H16.6667C17.0872 8.83266 17.4921 8.99146 17.8005 9.27737C18.1088 9.56328 18.2976 9.95516 18.3292 10.3745L18.3333 10.4995V17.0828C18.3335 17.3087 18.2502 17.5266 18.0994 17.6949C17.9487 17.8631 17.7412 17.9698 17.5167 17.9945L17.4167 17.9995H2.58334C2.35746 17.9996 2.13949 17.9163 1.97124 17.7656C1.80299 17.6149 1.69631 17.4073 1.67167 17.1828L1.66667 17.0828V10.4995C1.66654 10.079 1.82534 9.67398 2.11125 9.36567C2.39716 9.05735 2.78904 8.86849 3.20834 8.83696L3.33334 8.83279H5.00001V6.73279C4.99999 6.50836 5.0453 6.28624 5.13323 6.07975C5.22115 5.87326 5.34987 5.68665 5.51167 5.53112L5.62584 5.43112L9.21917 2.55696ZM10 4.06612L6.66667 6.73279V16.3328H13.3333V6.73279L10 4.06612ZM16.6667 10.4995H15V16.3328H16.6667V10.4995ZM5.00001 10.4995H3.33334V16.3328H5.00001V10.4995ZM10 7.16612C10.3283 7.16612 10.6534 7.23079 10.9567 7.35642C11.26 7.48206 11.5356 7.66621 11.7678 7.89835C11.9999 8.1305 12.1841 8.4061 12.3097 8.70941C12.4353 9.01273 12.5 9.33782 12.5 9.66612C12.5 9.99443 12.4353 10.3195 12.3097 10.6228C12.1841 10.9261 11.9999 11.2017 11.7678 11.4339C11.5356 11.666 11.26 11.8502 10.9567 11.9758C10.6534 12.1015 10.3283 12.1661 10 12.1661C9.33696 12.1661 8.70108 11.9027 8.23224 11.4339C7.7634 10.965 7.5 10.3292 7.5 9.66612C7.5 9.00308 7.7634 8.3672 8.23224 7.89835C8.70108 7.42951 9.33696 7.16612 10 7.16612ZM10 8.83279C9.77899 8.83279 9.56703 8.92059 9.41075 9.07687C9.25447 9.23315 9.16667 9.44511 9.16667 9.66612C9.16667 9.88714 9.25447 10.0991 9.41075 10.2554C9.56703 10.4117 9.77899 10.4995 10 10.4995C10.221 10.4995 10.433 10.4117 10.5893 10.2554C10.7455 10.0991 10.8333 9.88714 10.8333 9.66612C10.8333 9.44511 10.7455 9.23315 10.5893 9.07687C10.433 8.92059 10.221 8.83279 10 8.83279Z" fill="#76797D"/>
</svg>