<svg xmlns="http://www.w3.org/2000/svg" width="13" height="9" viewBox="0 0 13 9" fill="none">
  <path d="M6.50033 2.875C6.06935 2.875 5.65602 3.0462 5.35128 3.35095C5.04653 3.6557 4.87533 4.06902 4.87533 4.5C4.87533 4.93098 5.04653 5.3443 5.35128 5.64905C5.65602 5.9538 6.06935 6.125 6.50033 6.125C6.9313 6.125 7.34463 5.9538 7.64937 5.64905C7.95412 5.3443 8.12533 4.93098 8.12533 4.5C8.12533 4.06902 7.95412 3.6557 7.64937 3.35095C7.34463 3.0462 6.9313 2.875 6.50033 2.875ZM6.50033 7.20833C5.78203 7.20833 5.09316 6.92299 4.58524 6.41508C4.07733 5.90717 3.79199 5.21829 3.79199 4.5C3.79199 3.78171 4.07733 3.09283 4.58524 2.58492C5.09316 2.07701 5.78203 1.79167 6.50033 1.79167C7.21862 1.79167 7.9075 2.07701 8.41541 2.58492C8.92332 3.09283 9.20866 3.78171 9.20866 4.5C9.20866 5.21829 8.92332 5.90717 8.41541 6.41508C7.9075 6.92299 7.21862 7.20833 6.50033 7.20833ZM6.50033 0.4375C3.79199 0.4375 1.47908 2.12208 0.541992 4.5C1.47908 6.87792 3.79199 8.5625 6.50033 8.5625C9.20866 8.5625 11.5216 6.87792 12.4587 4.5C11.5216 2.12208 9.20866 0.4375 6.50033 0.4375Z" fill="#5F6268"/>
</svg>