<svg xmlns="http://www.w3.org/2000/svg" width="13" height="14" viewBox="0 0 13 14" fill="none">
  <path d="M6.50033 5.375C6.06935 5.375 5.65602 5.5462 5.35128 5.85095C5.04653 6.1557 4.87533 6.56902 4.87533 7C4.87533 7.43098 5.04653 7.8443 5.35128 8.14905C5.65602 8.4538 6.06935 8.625 6.50033 8.625C6.9313 8.625 7.34463 8.4538 7.64937 8.14905C7.95412 7.8443 8.12533 7.43098 8.12533 7C8.12533 6.56902 7.95412 6.1557 7.64937 5.85095C7.34463 5.5462 6.9313 5.375 6.50033 5.375ZM6.50033 9.70833C5.78203 9.70833 5.09316 9.42299 4.58524 8.91508C4.07733 8.40717 3.79199 7.71829 3.79199 7C3.79199 6.28171 4.07733 5.59283 4.58524 5.08492C5.09316 4.57701 5.78203 4.29167 6.50033 4.29167C7.21862 4.29167 7.9075 4.57701 8.41541 5.08492C8.92332 5.59283 9.20866 6.28171 9.20866 7C9.20866 7.71829 8.92332 8.40717 8.41541 8.91508C7.9075 9.42299 7.21862 9.70833 6.50033 9.70833ZM6.50033 2.9375C3.79199 2.9375 1.47908 4.62208 0.541992 7C1.47908 9.37792 3.79199 11.0625 6.50033 11.0625C9.20866 11.0625 11.5216 9.37792 12.4587 7C11.5216 4.62208 9.20866 2.9375 6.50033 2.9375Z" fill="#DDDDDF"/>
  <path d="M2.16699 3.20898L11.917 10.7923" stroke="#C6C7C9" stroke-linecap="round"/>
</svg>