<svg width="26" height="26" viewBox="0 0 26 26" fill="none" xmlns="http://www.w3.org/2000/svg">
<path d="M9.75001 16.25L16.25 9.75001M11.9167 6.50001L12.4183 5.91934C13.4342 4.90353 14.8121 4.33291 16.2488 4.33301C17.6854 4.33311 19.0632 4.90392 20.0791 5.91988C21.0949 6.93584 21.6655 8.31371 21.6654 9.75039C21.6653 11.1871 21.0945 12.5649 20.0785 13.5807L19.5 14.0833M14.0833 19.5L13.6533 20.0785C12.6252 21.0944 11.2381 21.664 9.7928 21.664C8.3475 21.664 6.96043 21.0944 5.93234 20.0785C5.42547 19.5777 5.02304 18.9813 4.74837 18.3238C4.47371 17.6664 4.33228 16.9609 4.33228 16.2484C4.33228 15.5358 4.47371 14.8304 4.74837 14.1729C5.02304 13.5155 5.42547 12.919 5.93234 12.4183L6.50001 11.9167" stroke="url(#paint0_linear_6463_10707)" stroke-width="2" stroke-linecap="round" stroke-linejoin="round"/>
<defs>
<linearGradient id="paint0_linear_6463_10707" x1="12.9988" y1="4.33301" x2="12.9988" y2="21.664" gradientUnits="userSpaceOnUse">
<stop stop-color="#4672EE"/>
<stop offset="1" stop-color="#5950F6"/>
</linearGradient>
</defs>
</svg>
