<svg width="35" height="27" viewBox="0 0 35 27" fill="none" xmlns="http://www.w3.org/2000/svg">
<path d="M24.8509 8.41212C24.764 8.41212 24.6756 8.41212 24.5872 8.41732C23.7528 7.04977 22.5395 5.92532 21.0791 5.16609C19.6187 4.40687 17.9671 4.04188 16.3035 4.11076C14.6399 4.17964 13.0281 4.67977 11.6429 5.55682C10.2578 6.43388 9.15226 7.65433 8.44648 9.08567C7.44957 9.26518 6.50721 9.6529 5.68767 10.2207C4.86812 10.7885 4.19192 11.5223 3.70804 12.3687C3.22417 13.2152 2.94473 14.1532 2.88997 15.1148C2.83522 16.0764 3.00652 17.0375 3.39146 17.9286C3.77641 18.8196 4.36535 19.6182 5.11565 20.2665C5.86594 20.9149 6.75879 21.3967 7.72951 21.6771C8.70023 21.9576 9.72453 22.0296 10.7282 21.8879C11.7319 21.7463 12.6898 21.3946 13.5325 20.8582C14.5451 21.215 15.6167 21.3973 16.6968 21.3966C16.8674 21.3966 17.045 21.3914 17.2273 21.3817H24.4057C24.5708 21.3914 24.7116 21.3966 24.8478 21.3966C24.9839 21.3966 25.1248 21.3914 25.2899 21.3817L25.6896 21.3428L26.0089 21.303C27.6955 21.025 29.2109 20.1571 30.2562 18.8706C31.3015 17.5842 31.8007 15.9725 31.6553 14.3538C31.5098 12.7352 30.7304 11.227 29.4707 10.127C28.211 9.02705 26.5627 8.41516 24.8509 8.41212ZM24.286 16.1894C24.1833 15.841 24.0106 15.5147 23.7773 15.2285C23.4784 14.8728 23.0966 14.6344 22.6099 14.4703C23.068 14.3302 23.4739 14.0677 23.7789 13.7143C24.0126 13.4268 24.1853 13.0989 24.2875 12.7489C24.3898 13.0987 24.5622 13.4265 24.7953 13.7143C25.0997 14.0683 25.5054 14.3314 25.9636 14.4718C25.4761 14.6374 25.0942 14.8743 24.7953 15.23C24.5622 15.5163 24.3893 15.8426 24.286 16.1909V16.1894ZM9.73207 10.3451C10.8254 10.3442 11.8933 10.6585 12.7942 11.2465C13.6951 11.8344 14.3865 12.6683 14.7768 13.6376C15.1671 14.6069 15.2378 15.6658 14.9797 16.6741C14.7216 17.6825 14.1468 18.5926 13.3314 19.2839C11.6465 18.5028 10.3218 17.1624 9.60826 15.5165C8.89474 13.8707 8.84191 12.0336 9.45978 10.3533C9.55054 10.3488 9.63974 10.3466 9.72894 10.3466L9.73207 10.3451ZM9.73207 20.5931C8.46595 20.5923 7.24038 20.1693 6.26959 19.3979C5.2988 18.6265 4.64454 17.5558 4.42119 16.373C4.19783 15.1902 4.41958 13.9706 5.04767 12.9272C5.67576 11.8839 6.67024 11.0832 7.85728 10.6652C7.38925 12.4519 7.53439 14.3338 8.27158 16.0368C9.00876 17.7398 10.2995 19.175 11.9558 20.1334C11.2566 20.4355 10.4972 20.5915 9.72894 20.5909L9.73207 20.5931ZM17.1905 20.0161H17.1686C17.0121 20.025 16.8556 20.0295 16.7031 20.0295C16.068 20.0295 15.4353 19.9547 14.8197 19.8067C15.6804 18.8984 16.2536 17.778 16.4733 16.5743C16.6929 15.3706 16.5502 14.1325 16.0615 13.0024C15.5729 11.8722 14.758 10.8959 13.7107 10.1857C12.6634 9.47553 11.4262 9.06025 10.1413 8.98764C10.8486 7.87815 11.8555 6.96818 13.0577 6.35188C14.2599 5.73558 15.6137 5.43533 16.9792 5.4822C18.3447 5.52908 19.6722 5.92137 20.8243 6.61848C21.9765 7.3156 22.9114 8.29223 23.5324 9.44732L23.7594 9.86837H23.768C23.6623 11.6699 23.5074 12.6517 23.0637 13.1767C22.5559 13.7812 21.5379 13.9052 19.3353 14.0426V14.904C21.5379 15.0421 22.5559 15.1654 23.0637 15.7699C23.5716 16.3743 23.7022 17.6063 23.8141 20.0176L17.1905 20.0161ZM25.2413 20.0161H25.214C25.0762 20.025 24.9612 20.0287 24.854 20.0287H24.7578C24.8697 17.6086 24.9925 16.3795 25.5082 15.7684C26.0238 15.1572 27.0348 15.0406 29.2366 14.9025V14.0411C27.0348 13.9037 26.016 13.7797 25.5082 13.1752C25.0598 12.6427 24.908 11.6387 24.8039 9.7852H24.8564C26.246 9.79748 27.5771 10.3178 28.5727 11.2379C29.5683 12.158 30.1517 13.407 30.2016 14.725C30.2515 16.043 29.764 17.3285 28.8406 18.314C27.9171 19.2996 26.6288 19.9092 25.2437 20.0161H25.2413Z" fill="url(#paint0_linear_6463_2838)"/>
<defs>
<linearGradient id="paint0_linear_6463_2838" x1="23.5759" y1="7.13806" x2="10.3015" y2="19.6129" gradientUnits="userSpaceOnUse">
<stop offset="0.060612" stop-color="#5950F6"/>
<stop offset="1" stop-color="#2AA4E2"/>
</linearGradient>
</defs>
</svg>
