<svg width="30" height="30" viewBox="0 0 30 30" fill="none" xmlns="http://www.w3.org/2000/svg">
<path fill-rule="evenodd" clip-rule="evenodd" d="M14.5338 5.29469C14.7545 5.11819 15.0252 5.01566 15.3075 5.00165C15.5898 4.98765 15.8693 5.06287 16.1064 5.21665L16.215 5.29469L20.0832 8.38963C20.2719 8.54047 20.4282 8.72788 20.5428 8.94061C20.6573 9.15334 20.7277 9.38701 20.7497 9.6276L20.7569 9.78998V20.1244H21.654V12.4992C21.6539 12.3942 21.6907 12.2925 21.7579 12.2119C21.8251 12.1312 21.9185 12.0767 22.0218 12.0578L22.1025 12.0506H22.5511C23.0037 12.0505 23.4397 12.2214 23.7716 12.5292C24.1035 12.837 24.3068 13.2589 24.3407 13.7102L24.3452 13.8448V20.9317C24.3451 21.1747 24.2554 21.4092 24.0931 21.5901C23.9309 21.771 23.7076 21.8857 23.4661 21.9123L23.3584 21.9185H7.39036C7.14719 21.9187 6.91255 21.829 6.73143 21.6668C6.55031 21.5045 6.43547 21.2811 6.40895 21.0394L6.40356 20.9317V13.8448C6.40342 13.3921 6.57437 12.9562 6.88216 12.6243C7.18994 12.2924 7.6118 12.0891 8.06317 12.0551L8.19773 12.0506H8.64627C8.75125 12.0506 8.85292 12.0874 8.93357 12.1546C9.01422 12.2218 9.06874 12.3152 9.08764 12.4184L9.09481 12.4992V20.1244H9.99189V9.78998C9.99188 9.54838 10.0407 9.30926 10.1353 9.08698C10.23 8.86469 10.3685 8.66381 10.5427 8.49638L10.6656 8.38873L14.5338 5.29469ZM15.3744 11.1526C14.8985 11.1526 14.4422 11.3417 14.1057 11.6781C13.7693 12.0146 13.5802 12.471 13.5802 12.9468C13.5802 13.4227 13.7693 13.879 14.1057 14.2155C14.4422 14.5519 14.8985 14.741 15.3744 14.741C15.8502 14.741 16.3066 14.5519 16.6431 14.2155C16.9795 13.879 17.1686 13.4227 17.1686 12.9468C17.1686 12.471 16.9795 12.0146 16.6431 11.6781C16.3066 11.3417 15.8502 11.1526 15.3744 11.1526Z" fill="url(#paint0_linear_6463_11992)"/>
<defs>
<linearGradient id="paint0_linear_6463_11992" x1="15.3744" y1="5" x2="15.3744" y2="21.9185" gradientUnits="userSpaceOnUse">
<stop stop-color="#4672EE"/>
<stop offset="1" stop-color="#5950F6"/>
</linearGradient>
</defs>
</svg>
