<svg xmlns="http://www.w3.org/2000/svg" width="40" height="40" viewBox="0 0 40 40" fill="none">
  <rect width="40" height="40" rx="20" fill="#F5F5F5"/>
  <rect x="10.4316" y="10.4297" width="19.1378" height="18.1809" rx="3" fill="white"/>
  <path d="M25.7416 16.1716C25.7416 16.6792 25.54 17.1659 25.1811 17.5248C24.8222 17.8837 24.3354 18.0854 23.8278 18.0854C23.3203 18.0854 22.8335 17.8837 22.4746 17.5248C22.1157 17.1659 21.9141 16.6792 21.9141 16.1716C21.9141 15.664 22.1157 15.1772 22.4746 14.8183C22.8335 14.4594 23.3203 14.2578 23.8278 14.2578C24.3354 14.2578 24.8222 14.4594 25.1811 14.8183C25.54 15.1772 25.7416 15.664 25.7416 16.1716Z" fill="#FF934B"/>
  <path fill-rule="evenodd" clip-rule="evenodd" d="M19.9446 9.47364H20.0562C22.317 9.47364 24.0883 9.47364 25.4708 9.65966C26.8847 9.84961 28.0009 10.2471 28.8773 11.1224C29.7536 11.9987 30.1502 13.1149 30.3401 14.5297C30.5261 15.9112 30.5261 17.6824 30.5261 19.9431V20.0293C30.5261 21.8984 30.5261 23.4277 30.4243 24.6731C30.3225 25.9264 30.1139 26.9711 29.6459 27.8405C29.4409 28.223 29.1847 28.568 28.8773 28.8754C28.0009 29.7517 26.8847 30.1482 25.4699 30.3382C24.0883 30.5242 22.317 30.5242 20.0562 30.5242H19.9446C17.6837 30.5242 15.9125 30.5242 14.5299 30.3382C13.116 30.1482 11.9998 29.7507 11.1235 28.8754C10.347 28.099 9.94558 27.1326 9.7331 25.9322C9.52259 24.7544 9.4844 23.2887 9.47657 21.4695C9.47526 21.0061 9.47461 20.5159 9.47461 19.9989V19.9421C9.47461 17.6814 9.47461 15.9102 9.66065 14.5277C9.8506 13.1139 10.2481 11.9977 11.1235 11.1215C11.9998 10.2452 13.116 9.84863 14.5309 9.65868C15.9125 9.47266 17.6837 9.47266 19.9446 9.47266M14.7257 11.1136C13.4744 11.282 12.7195 11.6032 12.1624 12.1603C11.6042 12.7184 11.2841 13.4723 11.1157 14.7245C10.9453 15.9973 10.9433 17.6696 10.9433 19.9979V20.8243L11.9234 19.9666C12.3534 19.5903 12.9102 19.3914 13.4813 19.4104C14.0523 19.4293 14.5948 19.6645 14.9989 20.0684L19.1994 24.2688C19.5254 24.5946 19.9559 24.7951 20.4151 24.8349C20.8743 24.8746 21.3328 24.7511 21.71 24.4861L22.0017 24.2805C22.5458 23.8982 23.2036 23.7118 23.8673 23.7518C24.5311 23.7918 25.1617 24.0559 25.6559 24.5008L28.4269 26.9946C28.7069 26.4091 28.8724 25.6395 28.9605 24.5537C29.0565 23.3739 29.0574 21.9033 29.0574 19.9979C29.0574 17.6696 29.0555 15.9973 28.8851 14.7245C28.7167 13.4723 28.3955 12.7174 27.8384 12.1593C27.2803 11.6022 26.5264 11.282 25.274 11.1136C24.0011 10.9433 22.3288 10.9413 20.0004 10.9413C17.672 10.9413 15.9986 10.9433 14.7257 11.1136Z" fill="#FF934B"/>
</svg>