<svg xmlns="http://www.w3.org/2000/svg" width="51" height="31" viewBox="0 0 51 31" fill="none">
  <path d="M38.6439 7.48192C38.4931 7.48192 38.3396 7.48192 38.1861 7.49094C36.7374 5.11671 34.631 3.16455 32.0956 1.84645C29.5602 0.528348 26.6928 -0.105315 23.8047 0.0142745C20.9166 0.133864 18.1182 1.00213 15.7134 2.5248C13.3086 4.04746 11.3893 6.16631 10.164 8.65126C8.43327 8.96292 6.79723 9.63604 5.37441 10.6218C3.9516 11.6077 2.77763 12.8815 1.93757 14.351C1.0975 15.8206 0.612368 17.4491 0.517308 19.1185C0.422247 20.788 0.719641 22.4566 1.38795 24.0035C2.05625 25.5504 3.07873 26.9369 4.38132 28.0625C5.68391 29.188 7.23399 30.0246 8.91928 30.5114C10.6046 30.9983 12.3829 31.1233 14.1253 30.8774C15.8678 30.6315 17.5308 30.0209 18.9939 29.0897C20.7519 29.7091 22.6123 30.0257 24.4875 30.0244C24.7836 30.0244 25.092 30.0154 25.4085 29.9986H37.8709C38.1576 30.0154 38.4021 30.0244 38.6385 30.0244C38.8748 30.0244 39.1194 30.0154 39.406 29.9986L40.0999 29.931L40.6544 29.8619C43.5824 29.3793 46.2133 27.8725 48.0281 25.6391C49.8428 23.4056 50.7095 20.6076 50.457 17.7974C50.2046 14.9872 48.8513 12.3689 46.6644 10.4592C44.4775 8.54949 41.6157 7.48719 38.6439 7.48192ZM37.6631 20.9842C37.4849 20.3793 37.185 19.8128 36.7801 19.3159C36.2612 18.6984 35.5983 18.2845 34.7533 17.9996C35.5487 17.7563 36.2533 17.3007 36.7828 16.6871C37.1885 16.1879 37.4884 15.6187 37.6658 15.0111C37.8434 15.6184 38.1427 16.1875 38.5475 16.6871C39.0759 17.3017 39.7802 17.7584 40.5756 18.0022C39.7293 18.2897 39.0664 18.7009 38.5475 19.3185C38.1427 19.8156 37.8424 20.382 37.6631 20.9868V20.9842ZM12.396 10.8378C14.2941 10.8361 16.1481 11.3818 17.7121 12.4026C19.2761 13.4234 20.4765 14.8711 21.1541 16.5539C21.8317 18.2367 21.9546 20.0751 21.5065 21.8257C21.0584 23.5763 20.0604 25.1563 18.6448 26.3565C15.7195 25.0004 13.4197 22.6733 12.181 19.8159C10.9422 16.9585 10.8505 13.7693 11.9232 10.852C12.0808 10.8443 12.2357 10.8404 12.3905 10.8404L12.396 10.8378ZM12.396 28.6294C10.1978 28.6281 8.07009 27.8936 6.38469 26.5544C4.69929 25.2152 3.56344 23.3564 3.17566 21.3029C2.78789 19.2495 3.17287 17.132 4.26331 15.3207C5.35374 13.5093 7.08027 12.1192 9.14111 11.3935C8.32855 14.4954 8.58053 17.7626 9.86037 20.7192C11.1402 23.6758 13.3811 26.1674 16.2567 27.8314C15.0428 28.3559 13.7243 28.6267 12.3905 28.6256L12.396 28.6294ZM25.3447 27.6277H25.3067C25.035 27.6431 24.7633 27.6509 24.4984 27.6509C23.3958 27.651 22.2974 27.521 21.2286 27.2641C22.7229 25.6872 23.718 23.7421 24.0994 21.6523C24.4808 19.5626 24.233 17.4132 23.3846 15.4511C22.5362 13.4891 21.1215 11.7941 19.3033 10.5611C17.4851 9.32811 15.3372 8.60713 13.1064 8.48108C14.3344 6.55489 16.0824 4.97508 18.1696 3.90511C20.2567 2.83514 22.6072 2.31388 24.9778 2.39525C27.3484 2.47663 29.6531 3.15769 31.6533 4.36796C33.6536 5.57824 35.2768 7.27377 36.3549 9.27913L36.7489 10.0101H36.7638C36.5804 13.1378 36.3114 14.8422 35.5412 15.7537C34.6596 16.8032 32.8922 17.0185 29.0682 17.257V18.7525C32.8922 18.9923 34.6596 19.2063 35.5412 20.2558C36.4228 21.3052 36.6497 23.4441 36.844 27.6303L25.3447 27.6277ZM39.3218 27.6277H39.2742C39.0351 27.6431 38.8354 27.6496 38.6493 27.6496H38.4822C38.6765 23.4479 38.8898 21.3142 39.785 20.2532C40.6802 19.1921 42.4353 18.9897 46.258 18.7499V17.2544C42.4353 17.0159 40.6666 16.8006 39.785 15.7511C39.0066 14.8268 38.7431 13.0837 38.5624 9.86573H38.6534C41.0659 9.88705 43.3768 10.7904 45.1053 12.3878C46.8338 13.9851 47.8468 16.1535 47.9334 18.4417C48.02 20.7299 47.1736 22.9617 45.5704 24.6727C43.9672 26.3837 41.7305 27.4421 39.3258 27.6277H39.3218Z" fill="url(#paint0_linear_2573_14059)"/>
  <defs>
    <linearGradient id="paint0_linear_2573_14059" x1="36.4304" y1="5.27" x2="13.3846" y2="26.9277" gradientUnits="userSpaceOnUse">
      <stop offset="0.060612" stop-color="#5950F6"/>
      <stop offset="1" stop-color="#2AA4E2"/>
    </linearGradient>
  </defs>
</svg>