<svg xmlns="http://www.w3.org/2000/svg" width="14" height="14" viewBox="0 0 14 14" fill="none">
  <path d="M0.75 1.75C0.75 1.19772 1.19772 0.75 1.75 0.75H12.25C12.8023 0.75 13.25 1.19772 13.25 1.75V12.25C13.25 12.8023 12.8023 13.25 12.25 13.25H1.75C1.19772 13.25 0.75 12.8023 0.75 12.25V1.75ZM12.1631 2.83695C12.1631 2.28467 11.7153 1.83695 11.1631 1.83695H2.83696C2.28468 1.83695 1.83696 2.28467 1.83696 2.83695V11.1631C1.83696 11.7153 2.28468 12.1631 2.83696 12.1631H11.1631C11.7153 12.1631 12.1631 11.7153 12.1631 11.1631V2.83695ZM2.06199 11.1522C1.84977 11.3644 1.50572 11.3644 1.29351 11.1522C1.08128 10.94 1.08128 10.5959 1.2935 10.3837L4.21689 7.46029C4.60717 7.07001 5.23986 7.06973 5.63049 7.45967L7.33041 9.15662C7.72103 9.54656 8.35372 9.54629 8.74401 9.156L9.40626 8.49374C9.79709 8.10291 10.4309 8.10326 10.8212 8.49451L12.7068 10.3842C12.9189 10.5967 12.9185 10.9409 12.706 11.153C12.4935 11.3651 12.1493 11.3647 11.9372 11.1522L10.8202 10.0329C10.4298 9.64176 9.79606 9.64144 9.40526 10.0322L8.74399 10.6935C8.35371 11.0838 7.72102 11.0841 7.3304 10.6941L5.63042 8.99712C5.23982 8.6072 4.60717 8.60745 4.21688 8.99768L2.06199 11.1522ZM8.03805 3.3424C8.9115 3.3424 9.61957 4.05047 9.61957 4.92392C9.61957 5.79737 8.9115 6.50544 8.03805 6.50544C7.1646 6.50544 6.45655 5.79737 6.45655 4.92392C6.45746 4.05084 7.16507 3.34332 8.03805 3.3424ZM8.03805 5.41848C8.3112 5.41848 8.53262 5.19705 8.53262 4.92392C8.53262 4.65078 8.31119 4.42935 8.03805 4.42935C7.76491 4.42935 7.54349 4.65078 7.54349 4.92392C7.54379 5.19694 7.76508 5.41818 8.03805 5.41848Z" fill="white"/>
</svg>