<svg xmlns="http://www.w3.org/2000/svg" viewBox="0 0 20 21" fill="none">
  <path d="M2.5 5.49935C2.5 4.61529 2.85119 3.76745 3.47631 3.14233C4.10143 2.51721 4.94928 2.16602 5.83333 2.16602H17.5V18.8327H5.83333C4.94928 18.8327 4.10143 18.4815 3.47631 17.8564C2.85119 17.2312 2.5 16.3834 2.5 15.4993V5.49935ZM4.16667 12.6118C4.67347 12.3195 5.24828 12.1658 5.83333 12.166H15.8333V3.83268H5.83333C5.39131 3.83268 4.96738 4.00828 4.65482 4.32084C4.34226 4.6334 4.16667 5.05732 4.16667 5.49935V12.6118ZM15.8333 13.8327H5.83333C5.39131 13.8327 4.96738 14.0083 4.65482 14.3208C4.34226 14.6334 4.16667 15.0573 4.16667 15.4993C4.16667 15.9414 4.34226 16.3653 4.65482 16.6779C4.96738 16.9904 5.39131 17.166 5.83333 17.166H15.8333V13.8327ZM8.33333 5.49935H14.1667V7.16602H8.33333V5.49935Z" fill="#76797D"/>
</svg>