<svg xmlns="http://www.w3.org/2000/svg" viewBox="0 0 14 18" fill="none">
  <path d="M6.99999 13.6673C6.55797 13.6673 6.13404 13.4917 5.82148 13.1792C5.50892 12.8666 5.33333 12.4427 5.33333 12.0007C5.33333 11.0757 6.07499 10.334 6.99999 10.334C7.44202 10.334 7.86594 10.5096 8.17851 10.8221C8.49107 11.1347 8.66666 11.5586 8.66666 12.0007C8.66666 12.4427 8.49107 12.8666 8.17851 13.1792C7.86594 13.4917 7.44202 13.6673 6.99999 13.6673ZM12 16.1673V7.83398H1.99999V16.1673H12ZM12 6.16732C12.442 6.16732 12.8659 6.34291 13.1785 6.65547C13.4911 6.96803 13.6667 7.39196 13.6667 7.83398V16.1673C13.6667 16.6093 13.4911 17.0333 13.1785 17.3458C12.8659 17.6584 12.442 17.834 12 17.834H1.99999C1.55797 17.834 1.13404 17.6584 0.821484 17.3458C0.508923 17.0333 0.333328 16.6093 0.333328 16.1673V7.83398C0.333328 6.90898 1.07499 6.16732 1.99999 6.16732H2.83333V4.50065C2.83333 3.39558 3.27232 2.33577 4.05372 1.55437C4.83512 0.772971 5.89493 0.333984 6.99999 0.333984C7.54717 0.333984 8.08899 0.441758 8.59451 0.651153C9.10003 0.860548 9.55936 1.16746 9.94627 1.55437C10.3332 1.94128 10.6401 2.40061 10.8495 2.90614C11.0589 3.41166 11.1667 3.95348 11.1667 4.50065V6.16732H12ZM6.99999 2.00065C6.33695 2.00065 5.70107 2.26404 5.23223 2.73288C4.76339 3.20173 4.49999 3.83761 4.49999 4.50065V6.16732H9.49999V4.50065C9.49999 3.83761 9.2366 3.20173 8.76776 2.73288C8.29892 2.26404 7.66304 2.00065 6.99999 2.00065Z" fill="#76797D"/>
</svg>