<svg xmlns="http://www.w3.org/2000/svg" width="10" height="11" viewBox="0 0 10 11" fill="none">
  <g opacity="0.8">
    <circle cx="5" cy="5.5" r="5" fill="white"/>
    <path fill-rule="evenodd" clip-rule="evenodd" d="M6.15456 5.22988C6.21567 5.3003 6.25 5.3958 6.25 5.49539C6.25 5.59497 6.21567 5.69047 6.15456 5.7609L4.31046 7.88535C4.28039 7.92122 4.24442 7.94983 4.20465 7.96951C4.16488 7.98919 4.1221 7.99955 4.07882 7.99999C4.03553 8.00042 3.99261 7.99092 3.95255 7.97203C3.91248 7.95315 3.87609 7.92527 3.84548 7.89001C3.81487 7.85474 3.79067 7.81281 3.77427 7.76666C3.75788 7.72051 3.74964 7.67106 3.75001 7.62119C3.75039 7.57133 3.75938 7.52205 3.77647 7.47623C3.79355 7.43041 3.81838 7.38897 3.84952 7.35433L5.46314 5.49539L3.84952 3.63644C3.79014 3.56561 3.75728 3.47075 3.75802 3.37228C3.75877 3.27381 3.79305 3.17962 3.85349 3.10999C3.91393 3.04037 3.99569 3.00087 4.08116 3.00001C4.16664 2.99916 4.24898 3.03701 4.31046 3.10542L6.15456 5.22988Z" fill="#4672EE"/>
  </g>
</svg>