<svg xmlns="http://www.w3.org/2000/svg" width="10" height="9" viewBox="0 0 10 9" fill="none">
  <g opacity="0.8">
    <circle cx="5.09512" cy="4.3754" r="4.10965" fill="white"/>
    <path fill-rule="evenodd" clip-rule="evenodd" d="M6.23576 4.14373C6.29613 4.20412 6.33004 4.28601 6.33004 4.3714C6.33004 4.45678 6.29613 4.53867 6.23576 4.59906L4.41411 6.42071C4.38441 6.45146 4.34887 6.476 4.30959 6.49287C4.2703 6.50975 4.22805 6.51863 4.18529 6.519C4.14253 6.51938 4.10013 6.51123 4.06055 6.49504C4.02098 6.47885 3.98502 6.45493 3.95479 6.4247C3.92456 6.39446 3.90064 6.35851 3.88445 6.31894C3.86826 6.27936 3.86011 6.23696 3.86049 6.1942C3.86086 6.15144 3.86974 6.10919 3.88662 6.0699C3.90349 6.03061 3.92803 5.99508 3.95878 5.96538L5.55276 4.3714L3.95878 2.77741C3.90012 2.71668 3.86767 2.63534 3.8684 2.55091C3.86913 2.46648 3.903 2.38571 3.9627 2.32601C4.02241 2.2663 4.10317 2.23244 4.18761 2.2317C4.27204 2.23097 4.35338 2.26343 4.41411 2.32208L6.23576 4.14373Z" fill="#4672EE"/>
  </g>
</svg>