<svg xmlns="http://www.w3.org/2000/svg" width="17" height="17" viewBox="0 0 17 17" fill="none">
  <path fill-rule="evenodd" clip-rule="evenodd" d="M11 6C11 6.79565 10.6839 7.55871 10.1213 8.12132C9.55871 8.68393 8.79565 9 8 9C7.20435 9 6.44129 8.68393 5.87868 8.12132C5.31607 7.55871 5 6.79565 5 6C5 5.20435 5.31607 4.44129 5.87868 3.87868C6.44129 3.31607 7.20435 3 8 3C8.79565 3 9.55871 3.31607 10.1213 3.87868C10.6839 4.44129 11 5.20435 11 6ZM9.5 6C9.5 6.39782 9.34196 6.77936 9.06066 7.06066C8.77936 7.34196 8.39782 7.5 8 7.5C7.60218 7.5 7.22064 7.34196 6.93934 7.06066C6.65804 6.77936 6.5 6.39782 6.5 6C6.5 5.60218 6.65804 5.22064 6.93934 4.93934C7.22064 4.65804 7.60218 4.5 8 4.5C8.39782 4.5 8.77936 4.65804 9.06066 4.93934C9.34196 5.22064 9.5 5.60218 9.5 6Z" fill="#4672EE"/>
  <path fill-rule="evenodd" clip-rule="evenodd" d="M8.5 0C3.80568 0 0 3.80568 0 8.5C0 13.1943 3.80568 17 8.5 17C13.1943 17 17 13.1943 17 8.5C17 3.80568 13.1943 0 8.5 0ZM1.54545 8.5C1.54545 10.115 2.09641 11.6017 3.01982 12.7825C3.66848 11.931 4.50512 11.241 5.46445 10.7662C6.42378 10.2914 7.47984 10.0448 8.55023 10.0455C9.60684 10.0442 10.6498 10.2843 11.5995 10.7474C12.5492 11.2105 13.3807 11.8843 14.0304 12.7175C14.6999 11.8394 15.1507 10.8145 15.3455 9.72755C15.5403 8.64061 15.4734 7.52291 15.1505 6.46694C14.8275 5.41097 14.2578 4.44708 13.4883 3.65503C12.7189 2.86298 11.7719 2.26553 10.7257 1.91212C9.67958 1.55871 8.56429 1.45951 7.47216 1.62271C6.38004 1.78591 5.34247 2.20683 4.44532 2.85063C3.54817 3.49444 2.81722 4.34263 2.31295 5.32501C1.80868 6.3074 1.54559 7.39575 1.54545 8.5ZM8.5 15.4545C6.90347 15.4571 5.35511 14.9079 4.11709 13.8998C4.61535 13.1863 5.27865 12.6037 6.05051 12.2017C6.82238 11.7997 7.67995 11.5902 8.55023 11.5909C9.40964 11.5902 10.2568 11.7945 11.0214 12.1869C11.786 12.5794 12.4459 13.1486 12.9463 13.8473C11.6987 14.8881 10.1248 15.4571 8.5 15.4545Z" fill="#4672EE"/>
</svg>