<svg xmlns="http://www.w3.org/2000/svg" width="15" height="17" viewBox="0 0 15 17" fill="none">
  <path d="M7.08333 12.9524C6.61368 12.9524 6.16326 12.7818 5.83117 12.4782C5.49907 12.1745 5.3125 11.7627 5.3125 11.3333C5.3125 10.4348 6.10052 9.71429 7.08333 9.71429C7.55299 9.71429 8.00341 9.88486 8.3355 10.1885C8.6676 10.4921 8.85417 10.9039 8.85417 11.3333C8.85417 11.7627 8.6676 12.1745 8.3355 12.4782C8.00341 12.7818 7.55299 12.9524 7.08333 12.9524ZM12.3958 15.381V7.28571H1.77083V15.381H12.3958ZM12.3958 5.66667C12.8655 5.66667 13.3159 5.83724 13.648 6.14088C13.9801 6.44451 14.1667 6.85632 14.1667 7.28571V15.381C14.1667 15.8104 13.9801 16.2222 13.648 16.5258C13.3159 16.8294 12.8655 17 12.3958 17H1.77083C1.30118 17 0.850761 16.8294 0.518665 16.5258C0.186569 16.2222 0 15.8104 0 15.381V7.28571C0 6.38714 0.788021 5.66667 1.77083 5.66667H2.65625V4.04762C2.65625 2.97412 3.12267 1.9446 3.95291 1.18552C4.78315 0.426444 5.9092 0 7.08333 0C7.66471 0 8.24039 0.104695 8.7775 0.308107C9.31462 0.511519 9.80266 0.809664 10.2138 1.18552C10.6248 1.56138 10.9509 2.00758 11.1734 2.49866C11.3959 2.98974 11.5104 3.51608 11.5104 4.04762V5.66667H12.3958ZM7.08333 1.61905C6.37885 1.61905 5.70322 1.87491 5.20508 2.33036C4.70694 2.78581 4.42708 3.40352 4.42708 4.04762V5.66667H9.73958V4.04762C9.73958 3.40352 9.45973 2.78581 8.96159 2.33036C8.46344 1.87491 7.78781 1.61905 7.08333 1.61905Z" fill="#5950f6"/>
</svg>