<svg xmlns="http://www.w3.org/2000/svg" width="17" height="17" viewBox="0 0 17 17" fill="none">
  <path fill-rule="evenodd" clip-rule="evenodd" d="M11.5908 6.18197C11.5908 7.00173 11.2651 7.78792 10.6854 8.36758C10.1058 8.94723 9.3196 9.27288 8.49984 9.27288C7.68008 9.27288 6.8939 8.94723 6.31424 8.36758C5.73458 7.78792 5.40894 7.00173 5.40894 6.18197C5.40894 5.36221 5.73458 4.57603 6.31424 3.99637C6.8939 3.41671 7.68008 3.09106 8.49984 3.09106C9.3196 3.09106 10.1058 3.41671 10.6854 3.99637C11.2651 4.57603 11.5908 5.36221 11.5908 6.18197ZM10.0453 6.18197C10.0453 6.59185 9.88247 6.98495 9.59265 7.27478C9.30282 7.5646 8.90972 7.72743 8.49984 7.72743C8.08996 7.72743 7.69687 7.5646 7.40704 7.27478C7.11721 6.98495 6.95439 6.59185 6.95439 6.18197C6.95439 5.77209 7.11721 5.379 7.40704 5.08917C7.69687 4.79934 8.08996 4.63652 8.49984 4.63652C8.90972 4.63652 9.30282 4.79934 9.59265 5.08917C9.88247 5.379 10.0453 5.77209 10.0453 6.18197Z" fill="#6F96D1"/>
  <path fill-rule="evenodd" clip-rule="evenodd" d="M8.5 0C3.80568 0 0 3.80568 0 8.5C0 13.1943 3.80568 17 8.5 17C13.1943 17 17 13.1943 17 8.5C17 3.80568 13.1943 0 8.5 0ZM1.54545 8.5C1.54545 10.115 2.09641 11.6017 3.01982 12.7825C3.66848 11.931 4.50512 11.241 5.46445 10.7662C6.42378 10.2914 7.47984 10.0448 8.55023 10.0455C9.60684 10.0442 10.6498 10.2843 11.5995 10.7474C12.5492 11.2105 13.3807 11.8843 14.0304 12.7175C14.6999 11.8394 15.1507 10.8145 15.3455 9.72755C15.5403 8.64061 15.4734 7.52291 15.1505 6.46694C14.8275 5.41097 14.2578 4.44708 13.4883 3.65503C12.7189 2.86298 11.7719 2.26553 10.7257 1.91212C9.67958 1.55871 8.56429 1.45951 7.47216 1.62271C6.38004 1.78591 5.34247 2.20683 4.44532 2.85063C3.54817 3.49444 2.81722 4.34263 2.31295 5.32501C1.80868 6.3074 1.54559 7.39575 1.54545 8.5ZM8.5 15.4545C6.90347 15.4571 5.35511 14.9079 4.11709 13.8998C4.61535 13.1863 5.27865 12.6037 6.05051 12.2017C6.82238 11.7997 7.67995 11.5902 8.55023 11.5909C9.40964 11.5902 10.2568 11.7945 11.0214 12.1869C11.786 12.5794 12.4459 13.1486 12.9463 13.8473C11.6987 14.8881 10.1248 15.4571 8.5 15.4545Z" fill="#6F96D1"/>
</svg>