<svg xmlns="http://www.w3.org/2000/svg" width="19" height="19" viewBox="0 0 19 19" fill="none">
  <path d="M7 12.5L8.66667 14L12 11" stroke="#4672EE" stroke-linecap="round" stroke-linejoin="round"/>
  <path d="M13.75 1.9V2.4H14.25H16.15C16.7733 2.4 17.371 2.64759 17.8117 3.0883C18.2524 3.52901 18.5 4.12674 18.5 4.75V16.15C18.5 16.7733 18.2524 17.371 17.8117 17.8117C17.371 18.2524 16.7733 18.5 16.15 18.5H2.85C2.22674 18.5 1.62901 18.2524 1.1883 17.8117C0.747589 17.371 0.5 16.7733 0.5 16.15V4.75C0.5 4.12674 0.747589 3.52901 1.1883 3.0883C1.62901 2.64759 2.22674 2.4 2.85 2.4H4.75H5.25V1.9V0.95C5.25 0.830653 5.29741 0.716194 5.3818 0.631802C5.46619 0.547411 5.58065 0.5 5.7 0.5C5.81935 0.5 5.93381 0.547411 6.0182 0.631802C6.10259 0.716193 6.15 0.830653 6.15 0.95V1.9V2.4H6.65H12.35H12.85V1.9V0.95C12.85 0.830653 12.8974 0.716193 12.9818 0.631802C13.0662 0.547411 13.1807 0.5 13.3 0.5C13.4193 0.5 13.5338 0.547411 13.6182 0.631801C13.7026 0.716193 13.75 0.830651 13.75 0.95V1.9ZM1.9 9H1.4V9.5V16.15C1.4 16.5346 1.55277 16.9034 1.8247 17.1753C2.09662 17.4472 2.46544 17.6 2.85 17.6H16.15C16.5346 17.6 16.9034 17.4472 17.1753 17.1753C17.4472 16.9034 17.6 16.5346 17.6 16.15V9.5V9H17.1H1.9ZM17.1 8.1H17.6V7.6V4.75C17.6 4.36544 17.4472 3.99662 17.1753 3.7247C16.9034 3.45277 16.5346 3.3 16.15 3.3H14.25H13.75V3.8V4.75C13.75 4.86935 13.7026 4.98381 13.6182 5.0682C13.5338 5.15259 13.4193 5.2 13.3 5.2C13.1807 5.2 13.0662 5.15259 12.9818 5.0682C12.8974 4.98381 12.85 4.86935 12.85 4.75V3.8V3.3H12.35H6.65H6.15V3.8V4.75C6.15 4.86935 6.10259 4.98381 6.0182 5.0682C5.93381 5.15259 5.81935 5.2 5.7 5.2C5.58065 5.2 5.46619 5.15259 5.3818 5.0682C5.29741 4.98381 5.25 4.86935 5.25 4.75V3.8V3.3H4.75H2.85C2.46544 3.3 2.09662 3.45277 1.8247 3.7247C1.55277 3.99662 1.4 4.36544 1.4 4.75V7.6V8.1H1.9H17.1Z" stroke="#4672EE"/>
</svg>